<?xml version="1.0" encoding="UTF-8"?>
<svg width="216px" height="282px" viewBox="0 0 216 282" version="1.1" xmlns="http://www.w3.org/2000/svg" xmlns:xlink="http://www.w3.org/1999/xlink">
    <!-- Generator: Sketch 49.3 (51167) - http://www.bohemiancoding.com/sketch -->
    <title>4 </title>
    <desc>Created with Sketch.</desc>
    <defs></defs>
    <g id="Page-1" stroke="none" stroke-width="1" fill="none" fill-rule="evenodd">
        <g id="404-Error" transform="translate(-865.000000, -216.000000)" fill="#3FA2F7">
            <path d="M1006.64062,498 L1006.64062,439.40625 L865.039062,439.40625 L865.039062,407.570312 C877.018289,385.304576 892.285063,359.783998 910.839844,331.007812 C929.394624,302.231627 955.338375,263.95076 988.671875,216.164062 L1040.625,216.164062 L1040.625,408.546875 L1080.46875,408.546875 L1080.46875,439.40625 L1040.625,439.40625 L1040.625,498 L1006.64062,498 Z M899.804688,407.765625 L899.804688,408.546875 L1006.64062,408.546875 L1006.64062,245.460938 L1006.05469,245.460938 C979.361846,283.481961 957.78003,315.154821 941.308594,340.480469 C924.837157,365.806116 911.00266,388.234277 899.804688,407.765625 Z" id="4-"></path>
        </g>
    </g>
</svg>