<?xml version="1.0" encoding="UTF-8"?>
<svg width="103px" height="32px" viewBox="0 0 103 32" version="1.1" xmlns="http://www.w3.org/2000/svg" xmlns:xlink="http://www.w3.org/1999/xlink">
    <!-- Generator: Sketch 49.3 (51167) - http://www.bohemiancoding.com/sketch -->
    <title>Airbnb</title>
    <desc>Created with Sketch.</desc>
    <defs></defs>
    <g id="Page-1" stroke="none" stroke-width="1" fill="none" fill-rule="evenodd">
        <g id="Homepage" transform="translate(-454.000000, -2362.000000)" fill="#297FCA">
            <g id="Logos-Copy" transform="translate(343.000000, 2362.000000)">
                <path d="M138.771035,25.9135863 C138.545697,27.5794402 137.419788,29.0209695 135.84281,29.6615625 C135.070781,29.981859 134.234089,30.0778309 133.397398,29.981859 C132.593233,29.8858871 131.788677,29.6295718 130.951985,29.148932 C129.793941,28.508339 128.635505,27.5154589 127.283866,26.0419389 C129.407535,23.4471862 130.694903,21.0771482 131.177324,18.9630352 C131.402662,17.9697649 131.434797,17.0728567 131.338392,16.2403199 C131.209459,15.4393836 130.91985,14.7024286 130.469565,14.0618356 C129.471805,12.6206964 127.798814,11.7877694 125.932619,11.7877694 C124.066424,11.7877694 122.393041,12.652687 121.395673,14.0618356 C120.944996,14.7024286 120.655387,15.4393836 120.526846,16.2403199 C120.398305,17.0728567 120.430441,18.0017556 120.687914,18.9630352 C121.170335,21.0771482 122.489839,23.4791768 124.58098,26.0739296 C123.261868,27.5474495 122.071297,28.5403297 120.912861,29.1809227 C120.076561,29.6615625 119.272005,29.9178777 118.467448,30.0138496 C117.598621,30.1098215 116.762322,29.981859 116.022036,29.6935531 C114.44545,29.0529601 113.319149,27.6114308 113.094203,25.945967 C112.997405,25.1450307 113.062067,24.3440944 113.383812,23.4471862 C113.480217,23.1268897 113.641285,22.8065932 113.801962,22.4223154 C114.0273,21.909685 114.284774,21.3650639 114.541856,20.8208329 L114.574383,20.7564615 C116.794457,15.9840047 119.175599,11.1151858 121.653147,6.37432946 L121.749553,6.18199551 C122.007026,5.70174583 122.2645,5.18911538 122.521974,4.70847557 C122.779056,4.19623525 123.068665,3.71559544 123.422936,3.29932703 C124.098559,2.53038135 124.999522,2.11411294 125.996889,2.11411294 C126.994257,2.11411294 127.895219,2.53038135 128.570843,3.29932703 C128.925114,3.71559544 129.214723,4.19623525 129.471805,4.70847557 C129.729279,5.18911538 129.986752,5.70174583 130.244226,6.18199551 L130.340632,6.37432946 C132.786045,11.1471764 135.167187,16.0159953 137.387653,20.7888423 L137.387653,20.8208329 C137.644735,21.3330732 137.870073,21.909685 138.127547,22.4223154 C138.288223,22.8065932 138.449291,23.1268897 138.545697,23.4471862 C138.80317,24.2801131 138.899968,25.0810494 138.771035,25.9135863 L138.771035,25.9135863 Z M125.932619,24.4084658 C124.194965,22.2299815 123.068665,20.1802399 122.68265,18.4504048 C122.521974,17.7134497 122.489839,17.0728567 122.586244,16.496245 C122.650515,15.9840047 122.843718,15.5353555 123.101192,15.1510777 C123.712545,14.2861601 124.742048,13.7415391 125.932619,13.7415391 C127.12319,13.7415391 128.184828,14.2541695 128.764046,15.1510777 C129.02152,15.5353555 129.214723,15.9840047 129.278994,16.496245 C129.375399,17.0728567 129.343264,17.7454404 129.182196,18.4504048 C128.796181,20.1478592 127.670273,22.1979908 125.932619,24.4084658 L125.932619,24.4084658 Z M140.444027,22.7426119 C140.28335,22.3583341 140.122674,21.9416756 139.961606,21.5893885 C139.704132,21.0127767 139.446659,20.4685458 139.22132,19.9559153 L139.189185,19.9239247 C136.969111,15.1190871 134.587969,10.2502682 132.078286,5.44543061 L131.98188,5.25309665 C131.724406,4.77284697 131.466933,4.26021652 131.209459,3.74758607 C130.887715,3.17097435 130.56597,2.56237199 130.051023,1.9861504 C129.02152,0.704574271 127.54134,0 125.964754,0 C124.356033,0 122.907988,0.704574271 121.845958,1.92177899 C121.363538,2.49839071 121.009658,3.10699308 120.687914,3.6836048 C120.430441,4.19623525 120.172967,4.70847557 119.915493,5.18911538 L119.819087,5.38144933 C117.34154,10.1862869 114.928262,15.0551058 112.707796,19.8595533 L112.675661,19.9239247 C112.450714,20.436165 112.193241,20.9807861 111.935767,21.5573978 C111.774699,21.909685 111.614023,22.2939627 111.452955,22.7106213 C111.034805,23.8958354 110.906264,25.016678 111.06694,26.1699015 C111.420819,28.5723203 113.02954,30.5904613 115.250006,31.4873696 C116.086306,31.8396567 116.955133,32 117.856095,32 C118.113569,32 118.435313,31.9676192 118.692787,31.9356286 C119.754817,31.807666 120.84859,31.4553789 121.910621,30.8467766 C123.229733,30.1098215 124.484574,29.0529601 125.900484,27.5154589 C127.316001,29.0529601 128.60337,30.1098215 129.890347,30.8467766 C130.951985,31.4553789 132.04615,31.807666 133.107789,31.9356286 C133.365262,31.9676192 133.687007,32 133.94448,32 C134.845442,32 135.746405,31.8396567 136.550961,31.4873696 C138.80317,30.5904613 140.379756,28.5403297 140.733636,26.1699015 C140.991109,25.0490588 140.862568,23.927826 140.444027,22.7426119 L140.444027,22.7426119 Z M172.524391,11.4674729 C173.457489,11.4674729 173.940301,11.6274261 173.940301,11.6274261 L173.940301,14.4784941 C173.940301,14.4784941 171.365955,13.6135765 169.757235,15.4393836 L169.757235,23.8638447 L166.668334,23.8638447 L166.668334,11.7877694 L169.274422,11.7877694 C169.531896,11.7877694 169.725099,12.012094 169.725099,12.2360285 L169.725099,12.7486589 C170.304317,12.0760753 171.559159,11.4674729 172.524391,11.4674729 L172.524391,11.4674729 Z M180.890132,21.2371013 C179.699561,21.2371013 178.766464,20.628499 178.284043,19.9239247 L178.284043,15.6317175 C178.766464,14.9907344 179.796359,14.3181508 180.890132,14.3181508 C182.94953,14.3181508 184.526116,15.5993368 184.526116,17.7778211 C184.526116,19.9559153 182.94953,21.2371013 180.890132,21.2371013 L180.890132,21.2371013 Z M181.40508,11.4674729 C179.281411,11.4674729 178.284043,12.7486589 178.284043,12.7486589 L178.284043,5.99005169 L175.195142,5.99005169 L175.195142,23.8318541 L177.801231,23.8318541 C178.058705,23.8318541 178.251908,23.6075295 178.251908,23.3832049 L178.251908,22.8385838 C178.251908,22.8385838 179.249276,24.1521506 181.372944,24.1521506 C184.879995,24.1521506 187.615017,21.4614259 187.615017,17.8098118 C187.647544,14.1581976 184.912522,11.4674729 181.40508,11.4674729 L181.40508,11.4674729 Z M199.971013,16.688579 L199.971013,23.8638447 L196.882112,23.8638447 L196.882112,17.0408661 C196.882112,15.0551058 196.238623,14.2541695 194.50097,14.2541695 C193.567872,14.2541695 192.60264,14.7348093 191.991287,15.4393836 L191.991287,23.8318541 L188.902386,23.8318541 L188.902386,11.7877694 L191.347798,11.7877694 C191.605272,11.7877694 191.798083,12.012094 191.798083,12.2360285 L191.798083,12.7486589 C192.699045,11.8197601 193.889616,11.4674729 195.080188,11.4674729 C196.431435,11.4674729 197.557735,11.8517507 198.458697,12.6206964 C199.552863,13.5176046 199.971013,14.6704379 199.971013,16.688579 L199.971013,16.688579 Z M207.275115,21.2371013 C206.084544,21.2371013 205.151447,20.628499 204.668635,19.9239247 L204.668635,15.6317175 C205.151447,14.9907344 206.18095,14.3181508 207.275115,14.3181508 C209.334513,14.3181508 210.911099,15.5993368 210.911099,17.7778211 C210.911099,19.9559153 209.334513,21.2371013 207.275115,21.2371013 L207.275115,21.2371013 Z M207.790063,11.4674729 C205.666394,11.4674729 204.668635,12.7486589 204.668635,12.7486589 L204.668635,5.99005169 L201.579734,5.99005169 L201.579734,23.8318541 L204.186214,23.8318541 C204.443688,23.8318541 204.636499,23.6075295 204.636499,23.3832049 L204.636499,22.8385838 C204.636499,22.8385838 205.634259,24.1521506 207.757928,24.1521506 C211.264978,24.1521506 214,21.4614259 214,17.8098118 C214,14.1581976 211.264978,11.4674729 207.790063,11.4674729 L207.790063,11.4674729 Z M161.648576,11.7877694 L164.737476,11.7877694 L164.737476,23.8318541 L161.648576,23.8318541 L161.648576,11.7877694 Z M156.661345,19.9559153 C156.178532,20.6604896 155.2133,21.269092 154.054864,21.269092 C151.995466,21.269092 150.41888,19.987906 150.41888,17.8098118 C150.41888,15.6317175 151.995466,14.3501414 154.054864,14.3501414 C155.181165,14.3501414 156.210668,14.9907344 156.661345,15.6637082 L156.661345,19.9559153 L156.661345,19.9559153 Z M156.661345,12.2360285 L156.661345,12.7486589 C156.661345,12.7486589 155.663585,11.4674729 153.540308,11.4674729 C150.032866,11.4674729 147.297844,14.126207 147.297844,17.8098118 C147.297844,21.4614259 150.00073,24.1521506 153.540308,24.1521506 C155.696112,24.1521506 156.661345,22.8385838 156.661345,22.8385838 L156.661345,23.3832049 C156.661345,23.6395201 156.854156,23.8318541 157.11163,23.8318541 L159.71811,23.8318541 L159.71811,11.7877694 L157.11163,11.7877694 C156.854156,11.7877694 156.661345,12.012094 156.661345,12.2360285 L156.661345,12.2360285 Z M165.284559,8.03979323 C165.284559,9.19301668 164.351462,10.1219155 163.193026,10.1219155 C162.03459,10.1219155 161.101493,9.19301668 161.101493,8.03979323 C161.101493,6.88695991 162.002455,5.95806106 163.193026,5.95806106 C164.383597,5.99005169 165.284559,6.91895055 165.284559,8.03979323 L165.284559,8.03979323 Z" id="Airbnb"></path>
            </g>
        </g>
    </g>
</svg>