<?xml version="1.0" encoding="UTF-8"?>
<svg width="16px" height="20px" viewBox="0 0 16 20" version="1.1" xmlns="http://www.w3.org/2000/svg" xmlns:xlink="http://www.w3.org/1999/xlink">
    <!-- Generator: Sketch 49.3 (51167) - http://www.bohemiancoding.com/sketch -->
    <title>Icon/ Archive</title>
    <desc>Created with Sketch.</desc>
    <defs>
        <path d="M3.42857143,6.48257175 L5.26838281,4.57461921 C5.43575036,4.40105286 5.70710678,4.40105286 5.87447433,4.57461921 C6.04184189,4.74818556 6.04184189,5.02959222 5.87447433,5.20315857 L3.30304576,7.86982524 C3.13567821,8.04339159 2.86432179,8.04339159 2.69695424,7.86982524 L0.125525665,5.20315857 C-0.0418418884,5.02959222 -0.0418418884,4.74818556 0.125525665,4.57461921 C0.292893219,4.40105286 0.564249638,4.40105286 0.731617192,4.57461921 L2.57142857,6.48257175 L2.57142857,0.444444444 C2.57142857,0.198984556 2.76330654,0 3,0 C3.23669346,0 3.42857143,0.198984556 3.42857143,0.444444444 L3.42857143,6.48257175 Z" id="path-1"></path>
        <path d="M15.9309354,5.91463568 C15.9649943,5.9863846 15.9875074,6.06460249 15.9960951,6.14692647 C15.9986723,6.17189879 16,6.19702567 16,6.22222245 L16,9.83333342 C16,11.0299503 15.0231667,12 13.8181818,12 L2.18181818,12 C0.976833273,12 0,11.0299503 0,9.83333342 L0,6.22222245 C0,6.19702567 0.0013276558,6.17189879 0.00396157163,6.14694197 C0.0124926365,6.06460249 0.0350056654,5.9863846 0.069064599,5.91463568 L2.58613407,0.288757941 C2.82042204,-0.236200234 3.43619867,0.260427796 4.07665164,0.646129317 C4.00986929,0.709891379 3.95481671,0.786845181 3.91586675,0.874166933 L1.84622678,5.50000025 L5.09090909,5.50000025 C5.33407505,5.50000025 5.56115237,5.6206844 5.69603658,5.82160566 L6.9346791,7.66666684 L9.0653209,7.66666684 L10.3039634,5.82160566 C10.4388476,5.6206844 10.665925,5.50000025 10.9090909,5.50000025 L14.1537732,5.50000025 L12.1347647,0.987332944 C12.8859309,0.8440619 13.0831748,-0.452617248 13.4137162,0.288423311 L15.9309354,5.91463568 Z M1.45454545,6.94444464 L1.45454545,9.83333342 C1.45454545,10.2322057 1.78015655,10.5555556 2.18181818,10.5555556 L13.8181818,10.5555556 C14.2198435,10.5555556 14.5454545,10.2322057 14.5454545,9.83333342 L14.5454545,6.94444464 L11.2983155,6.94444464 L10.0596729,8.78950582 C9.92478874,8.99042708 9.69771141,9.11111122 9.45454545,9.11111122 L6.54545455,9.11111122 C6.30228859,9.11111122 6.07521126,8.99042708 5.94032706,8.78950582 L4.70168454,6.94444464 L1.45454545,6.94444464 Z" id="path-3"></path>
    </defs>
    <g id="Page-1" stroke="none" stroke-width="1" fill="none" fill-rule="evenodd">
        <g id="Candidate-Inbox-/-View-Message-" transform="translate(-376.000000, -460.000000)">
            <g id="Icon/-Archive" transform="translate(376.000000, 460.000000)">
                <g id="Group-7">
                    <g id="arrow-down" transform="translate(5.000000, 0.000000)">
                        <mask id="mask-2" fill="white">
                            <use xlink:href="#path-1"></use>
                        </mask>
                        <use id="Combined-Shape" fill="#454545" fill-rule="nonzero" xlink:href="#path-1"></use>
                    </g>
                    <g id="inbox" transform="translate(0.000000, 8.000000)">
                        <mask id="mask-4" fill="white">
                            <use xlink:href="#path-3"></use>
                        </mask>
                        <use id="Combined-Shape" fill="#454545" fill-rule="nonzero" xlink:href="#path-3"></use>
                    </g>
                </g>
            </g>
        </g>
    </g>
</svg>