<?xml version="1.0" encoding="UTF-8"?>
<svg width="19px" height="12px" viewBox="0 0 19 12" version="1.1" xmlns="http://www.w3.org/2000/svg" xmlns:xlink="http://www.w3.org/1999/xlink">
    <!-- Generator: Sketch 49.3 (51167) - http://www.bohemiancoding.com/sketch -->
    <title>Behance</title>
    <desc>Created with Sketch.</desc>
    <defs></defs>
    <g id="Page-1" stroke="none" stroke-width="1" fill="none" fill-rule="evenodd">
        <g id="Homepage" transform="translate(-431.000000, -3035.000000)" fill="#3FA2F7">
            <g id="Contents-#19" transform="translate(0.000000, 2505.000000)">
                <g id="Social" transform="translate(271.000000, 528.000000)">
                    <path d="M167.816677,7.3669855 C168.210856,7.16886137 168.509084,6.94843532 168.712398,6.70830058 C169.075457,6.2783401 169.255431,5.70834425 169.255431,5.00194357 C169.255431,4.31577022 169.075457,3.72710299 168.717066,3.23438592 C168.119573,2.43203507 167.106117,2.02126463 165.674106,2 L160,2 L160,13.5830003 L165.290818,13.5830003 C165.887274,13.5830003 166.439125,13.5321727 166.949483,13.4274054 C167.46036,13.3216009 167.901737,13.1286633 168.275689,12.8454807 C168.608666,12.5986035 168.885629,12.2946748 169.106577,11.9342134 C169.45667,11.3896314 169.630939,10.7734757 169.630939,10.0873024 C169.630939,9.42135635 169.477935,8.85499105 169.174002,8.3897624 C168.866957,7.92349646 168.415207,7.58326236 167.816677,7.3669855 L167.816677,7.3669855 Z M162.340698,4.01132294 L164.896639,4.01132294 C165.458345,4.01132294 165.920987,4.07200494 166.285084,4.19233163 C166.705196,4.36607923 166.915252,4.72239147 166.915252,5.26334294 C166.915252,5.74828027 166.755505,6.08747707 166.438087,6.2793774 C166.118595,6.47127773 165.704188,6.5672279 165.195904,6.5672279 L162.340698,6.5672279 L162.340698,4.01132294 L162.340698,4.01132294 Z M166.381035,11.3688854 C166.098367,11.5042529 165.700557,11.5727147 165.191236,11.5727147 L162.340698,11.5727147 L162.340698,8.48363797 L165.231692,8.48363797 C165.73427,8.48778717 166.126375,8.55417431 166.405931,8.6796875 C166.904879,8.9058187 167.152797,9.31918239 167.152797,9.92289046 C167.152797,10.6349963 166.896061,11.1152658 166.381035,11.3688854 Z M172.140719,2.53991418 L177.172209,2.53991418 L177.172209,3.98124126 L172.140719,3.98124126 L172.140719,2.53991418 Z M178.228195,6.45883015 C178.586587,6.968144 178.81687,7.55888583 178.921639,8.23001834 C178.983359,8.62263605 179.007736,9.19107595 178.997882,9.9306702 L172.671824,9.9306702 C172.709686,10.7890352 173.008951,11.391706 173.581029,11.7371266 C173.926974,11.9518475 174.343974,12.0597266 174.833067,12.0597266 C175.348093,12.0597266 175.769243,11.9285083 176.092366,11.6676275 C176.269747,11.5249989 176.426381,11.3289494 176.560194,11.077923 L178.878072,11.077923 C178.81687,11.5846436 178.53524,12.1017372 178.037329,12.6260919 C177.259344,13.4585244 176.170683,13.875 174.770828,13.875 C173.614223,13.875 172.594544,13.5243929 171.713346,12.8211041 C170.82748,12.1193713 170.387141,10.9752304 170.387141,9.39283063 C170.387141,7.90845563 170.785988,6.77001987 171.582645,5.97752337 C172.381376,5.18710146 173.414541,4.78929726 174.686806,4.78929726 C175.443008,4.78929726 176.123485,4.92362749 176.728758,5.1917693 C177.335586,5.45835517 177.835053,5.8815732 178.228195,6.45883015 Z M172.72732,8.452519 C172.810305,7.89497074 173.012582,7.45308132 173.333111,7.12685076 C173.653641,6.8006202 174.106947,6.63776424 174.687843,6.63776424 C175.224134,6.63776424 175.672254,6.79076585 176.036351,7.09832503 C176.396299,7.40795881 176.599612,7.85762797 176.640586,8.452519 L172.72732,8.452519 L172.72732,8.452519 Z" id="Behance"></path>
                </g>
            </g>
        </g>
    </g>
</svg>