<?xml version="1.0" encoding="UTF-8"?>
<svg width="26px" height="19px" viewBox="0 0 26 19" version="1.1" xmlns="http://www.w3.org/2000/svg" xmlns:xlink="http://www.w3.org/1999/xlink">
    <!-- Generator: Sketch 49.3 (51167) - http://www.bohemiancoding.com/sketch -->
    <title>Icon/ Block User</title>
    <desc>Created with Sketch.</desc>
    <defs>
        <path d="M15,16.15 C15,16.619442 14.626904,17 14.1666667,17 C13.7064294,17 13.3333333,16.619442 13.3333333,16.15 L13.3333333,14.45 C13.3333333,13.0416739 12.2140452,11.9 10.8333333,11.9 L4.16666667,11.9 C2.78595479,11.9 1.66666667,13.0416739 1.66666667,14.45 L1.66666667,16.15 C1.66666667,16.619442 1.29357062,17 0.833333333,17 C0.373096042,17 0,16.619442 0,16.15 L0,14.45 C0,12.1027898 1.86548021,10.2 4.16666667,10.2 L10.8333333,10.2 C13.1345198,10.2 15,12.1027898 15,14.45 L15,16.15 Z M7.5,8.5 C5.19881354,8.5 3.33333333,6.59721019 3.33333333,4.25 C3.33333333,1.90278981 5.19881354,0 7.5,0 C9.80118646,0 11.6666667,1.90278981 11.6666667,4.25 C11.6666667,6.59721019 9.80118646,8.5 7.5,8.5 Z M7.5,6.8 C8.88071187,6.8 10,5.65832611 10,4.25 C10,2.84167389 8.88071187,1.7 7.5,1.7 C6.11928813,1.7 5,2.84167389 5,4.25 C5,5.65832611 6.11928813,6.8 7.5,6.8 Z" id="path-1"></path>
        <path d="M2.91666667,2.33333333 C2.59450056,2.33333333 2.33333333,2.59450056 2.33333333,2.91666667 L2.33333333,11.0833333 C2.33333333,11.4054994 2.59450056,11.6666667 2.91666667,11.6666667 L11.0833333,11.6666667 C11.4054994,11.6666667 11.6666667,11.4054994 11.6666667,11.0833333 L11.6666667,2.91666667 C11.6666667,2.59450056 11.4054994,2.33333333 11.0833333,2.33333333 L2.91666667,2.33333333 Z M2.91666667,1.16666667 L11.0833333,1.16666667 C12.0498316,1.16666667 12.8333333,1.95016835 12.8333333,2.91666667 L12.8333333,11.0833333 C12.8333333,12.0498316 12.0498316,12.8333333 11.0833333,12.8333333 L2.91666667,12.8333333 C1.95016835,12.8333333 1.16666667,12.0498316 1.16666667,11.0833333 L1.16666667,2.91666667 C1.16666667,1.95016835 1.95016835,1.16666667 2.91666667,1.16666667 Z M7,6.17504209 L5.66247896,4.83752104 C5.43467312,4.60971521 5.06532688,4.60971521 4.83752104,4.83752104 C4.60971521,5.06532688 4.60971521,5.43467312 4.83752104,5.66247896 L6.17504209,7 L4.83752104,8.33752104 C4.60971521,8.56532688 4.60971521,8.93467312 4.83752104,9.16247896 C5.06532688,9.39028479 5.43467312,9.39028479 5.66247896,9.16247896 L7,7.82495791 L8.33752104,9.16247896 C8.56532688,9.39028479 8.93467312,9.39028479 9.16247896,9.16247896 C9.39028479,8.93467312 9.39028479,8.56532688 9.16247896,8.33752104 L7.82495791,7 L9.16247896,5.66247896 C9.39028479,5.43467312 9.39028479,5.06532688 9.16247896,4.83752104 C8.93467312,4.60971521 8.56532688,4.60971521 8.33752104,4.83752104 L7,6.17504209 Z" id="path-3"></path>
    </defs>
    <g id="Page-1" stroke="none" stroke-width="1" fill="none" fill-rule="evenodd">
        <g id="Candidate-Inbox-/-View-Message-" transform="translate(-437.000000, -460.000000)">
            <g id="Icon/-Block-User" transform="translate(437.000000, 460.000000)">
                <g id="Group-7">
                    <g id="user">
                        <mask id="mask-2" fill="white">
                            <use xlink:href="#path-1"></use>
                        </mask>
                        <use id="Combined-Shape" fill="#454545" fill-rule="nonzero" xlink:href="#path-1"></use>
                    </g>
                    <g id="x-square" transform="translate(13.000000, 6.000000)">
                        <mask id="mask-4" fill="white">
                            <use xlink:href="#path-3"></use>
                        </mask>
                        <use id="Combined-Shape" fill="#000000" fill-rule="nonzero" xlink:href="#path-3"></use>
                        <g id="COLOR/-black" mask="url(#mask-4)" fill="#000000" fill-rule="evenodd">
                            <rect id="Rectangle" x="0" y="0" width="14" height="14"></rect>
                        </g>
                    </g>
                </g>
            </g>
        </g>
    </g>
</svg>