<?xml version="1.0" encoding="UTF-8"?>
<svg width="254px" height="299px" viewBox="0 0 254 299" version="1.1" xmlns="http://www.w3.org/2000/svg" xmlns:xlink="http://www.w3.org/1999/xlink">
    <!-- Generator: Sketch 49.3 (51167) - http://www.bohemiancoding.com/sketch -->
    <title>Ghost</title>
    <desc>Created with Sketch.</desc>
    <defs></defs>
    <g id="Page-1" stroke="none" stroke-width="1" fill="none" fill-rule="evenodd">
        <g id="404-Error" transform="translate(-596.000000, -396.000000)" fill="#3FA2F7">
            <path d="M782.291753,533.450525 C768.265309,533.450525 756.884586,522.104185 756.884586,508.082172 C756.884586,494.076709 768.265309,482.713373 782.291753,482.713373 C796.319093,482.713373 807.698921,494.076709 807.698921,508.082172 C807.698921,522.104185 796.319093,533.450525 782.291753,533.450525 M638.317206,508.082172 C638.317206,494.076709 649.697929,482.713373 663.724374,482.713373 C677.751714,482.713373 689.131541,494.076709 689.131541,508.082172 C689.131541,522.104185 677.751714,533.450525 663.724374,533.450525 C649.697929,533.450525 638.317206,522.104185 638.317206,508.082172 M723,396 C595.963266,396 596,514.386241 596,514.386241 L596,695 L627.773295,652.763992 L659.491489,695 L691.213266,652.763992 L722.936836,695 L754.660854,652.763992 L786.385767,695 L818.135319,652.763992 L850,695 L850,514.386241 C850,514.386241 850.036286,396 723,396" id="Ghost"></path>
        </g>
    </g>
</svg>