<?xml version="1.0" encoding="UTF-8"?>
<svg width="15px" height="11px" viewBox="0 0 15 11" version="1.1" xmlns="http://www.w3.org/2000/svg" xmlns:xlink="http://www.w3.org/1999/xlink">
    <!-- Generator: Sketch 49.3 (51167) - http://www.bohemiancoding.com/sketch -->
    <title>Icon</title>
    <desc>Created with Sketch.</desc>
    <defs></defs>
    <g id="Page-1" stroke="none" stroke-width="1" fill="none" fill-rule="evenodd" opacity="0.400000006">
        <g id="Employer-Company-Profile--Copy" transform="translate(-1021.000000, -535.000000)" fill="#3FA2F7">
            <g id="Profile" transform="translate(185.000000, 450.000000)">
                <g id="Location" transform="translate(396.000000, 75.000000)">
                    <g id="Input-White-w/-Icon-360px" transform="translate(191.000000, 0.000000)">
                        <path d="M263.449001,14.1589426 C263.518638,14.2381113 263.990911,14.7508576 263.999812,15.4064034 C264.006095,15.8680971 263.854255,16.2091881 263.634874,16.4947871 C262.453666,18.1084953 259.88496,20.9778032 256.510457,20.9985202 L256.510457,21 L256.501032,21 L256.491608,21 L256.491608,20.9985202 C253.123387,20.9778032 250.546827,18.1084953 249.366144,16.4947871 C249.146762,16.2091881 248.994398,15.8680971 249.000158,15.4064034 C249.008012,14.7508576 249.481332,14.2381113 249.550445,14.1589426 C250.995539,12.4971413 253.431255,10.0821282 256.491084,10 L256.500509,10 L256.509933,10 C259.570809,10.0821282 262.003907,12.4971413 263.449001,14.1589426 Z M256.500509,19.7569785 C258.160272,19.7407009 259.494366,17.8406538 259.494366,15.4981503 C259.494366,13.1556467 258.160272,11.2548598 256.500509,11.2400619 C254.844934,11.2548598 253.506128,13.1556467 253.506128,15.4981503 C253.506128,17.8406538 254.844934,19.7414408 256.500509,19.7569785 Z M256.509933,13.843008 C257.148183,13.8652048 257.652918,14.5976996 257.652918,15.4981503 C257.652918,16.3986009 257.148183,17.1318356 256.509933,17.1532925 L256.509933,17.1547723 C256.506268,17.1547723 256.503126,17.1532925 256.500509,17.1532925 C256.497367,17.1532925 256.494226,17.1547723 256.491084,17.1547723 L256.491084,17.1532925 C255.857023,17.1318356 255.348099,16.3986009 255.348099,15.4981503 C255.348099,14.5976996 255.857547,13.8652048 256.491084,13.843008 L256.491084,13.8422681 L256.500509,13.8422681 C256.50365,13.8422681 256.506792,13.8422681 256.509933,13.843008 Z" id="Icon"></path>
                    </g>
                </g>
            </g>
        </g>
    </g>
</svg>