<?xml version="1.0" encoding="UTF-8"?>
<svg width="16px" height="16px" viewBox="0 0 16 16" version="1.1" xmlns="http://www.w3.org/2000/svg" xmlns:xlink="http://www.w3.org/1999/xlink">
    <!-- Generator: Sketch 49.3 (51167) - http://www.bohemiancoding.com/sketch -->
    <title>Facebook</title>
    <desc>Created with Sketch.</desc>
    <defs></defs>
    <g id="Page-1" stroke="none" stroke-width="1" fill="none" fill-rule="evenodd">
        <g id="Homepage" transform="translate(-313.000000, -3033.000000)" fill="#3FA2F7">
            <g id="Contents-#19" transform="translate(0.000000, 2505.000000)">
                <g id="Social" transform="translate(271.000000, 528.000000)">
                    <path d="M58,15.1165831 C58,15.6042711 57.6046961,16 57.1169949,16 L53.0397429,16 L53.0397429,9.80387884 L55.1195554,9.80387884 L55.4311787,7.38940946 L53.0397429,7.38940946 L53.0397429,5.84746132 C53.0397429,5.14839834 53.234126,4.67204184 54.2365504,4.67204184 L55.5152951,4.67160601 L55.5152951,2.51165831 C55.2938901,2.48245805 54.5350985,2.41664851 53.6520934,2.41664851 C51.8085043,2.41664851 50.5463213,3.54194814 50.5463213,5.60862933 L50.5463213,7.38940946 L48.4612786,7.38940946 L48.4612786,9.80387884 L50.5463213,9.80387884 L50.5463213,16 L42.8830051,16 C42.3953039,16 42,15.6042711 42,15.1165831 L42,0.883416866 C42,0.395293092 42.3953039,0 42.8830051,0 L57.1169949,0 C57.6046961,0 58,0.395293092 58,0.883416866 L58,15.1165831" id="Facebook"></path>
                </g>
            </g>
        </g>
    </g>
</svg>