<?xml version="1.0" encoding="UTF-8"?>
<svg width="76px" height="24px" viewBox="0 0 76 24" version="1.1" xmlns="http://www.w3.org/2000/svg" xmlns:xlink="http://www.w3.org/1999/xlink">
    <!-- Generator: Sketch 49.3 (51167) - http://www.bohemiancoding.com/sketch -->
    <title>Flickr</title>
    <desc>Created with Sketch.</desc>
    <defs></defs>
    <g id="Page-1" stroke="none" stroke-width="1" fill="none" fill-rule="evenodd">
        <g id="Homepage" transform="translate(-343.000000, -2364.000000)" fill="#297FCA">
            <g id="Logos-Copy" transform="translate(343.000000, 2362.000000)">
                <path d="M3.05517915,13.0687083 L0,13.0687083 L0,9.31176129 L3.14160276,9.31176129 L3.14160276,8.35740026 C3.14160276,3.73541889 5.24522511,2.125 9.39535248,2.125 C10.5193079,2.125 11.3836935,2.30395203 12.0466732,2.4231538 L11.7293879,6.12094802 C11.2974194,5.97172175 10.8650024,5.88224573 10.0868909,5.88224573 C8.76123049,5.88224573 8.24253933,6.83645739 8.24253933,8.35740026 L8.24253933,9.31176129 L11.9310929,9.31176129 L11.9310929,13.0687083 L8.24253933,13.0687083 L8.24253933,24.8472771 L3.05517915,24.8472771 L3.05517915,13.0687083 Z M15.4355437,2.82402825 L20.837963,2.82402825 L20.837963,25.2054799 L15.4355437,25.2054799 L15.4355437,2.82402825 Z M24.696834,2.82402825 L30.0992534,2.82402825 L30.0992534,6.68289922 L24.696834,6.68289922 L24.696834,2.82402825 Z M24.696834,8.9982218 L30.0992534,8.9982218 L30.0992534,24.4337057 L24.696834,24.4337057 L24.696834,8.9982218 Z M45.0388776,13.7858124 C44.0768071,13.1912925 43.1145853,12.9237511 41.8610195,12.9237511 C39.586842,12.9237511 37.8375679,14.5294463 37.8375679,17.205754 C37.8375679,19.6742553 39.8786398,21.2795036 42.1531198,21.2795036 C43.347842,21.2795036 44.5433205,21.0122602 45.4181089,20.5363166 L45.5347372,24.5209851 C44.2226303,24.9674336 42.6483744,25.2054799 41.248834,25.2054799 C36.2339657,25.2054799 32.4145759,22.2313909 32.4145759,17.1165239 C32.4145759,11.9721618 36.2339657,8.9982218 41.248834,8.9982218 C42.8232413,8.9982218 44.2226303,9.26606112 45.4181089,9.86058098 L45.0388776,13.7858124 Z M48.621834,2.82402825 L53.7287681,2.82402825 L53.7287681,16.1935522 L53.7858881,16.1935522 L58.0419118,9.6582042 L63.6315683,9.6582042 L58.4956325,16.7903112 L64.0573179,25.2054799 L57.8712881,25.2054799 L53.7858881,17.5066611 L53.7287681,17.5066611 L53.7287681,25.2054799 L48.621834,25.2054799 L48.621834,2.82402825 Z M75.3785014,13.7417389 C74.8115836,13.5594073 74.2440772,13.5594073 73.6486149,13.5594073 C71.2666183,13.5594073 69.9337067,15.4142549 69.9337067,18.5160255 L69.9337067,25.2054799 L64.8290921,25.2054799 L64.8290921,9.36334208 L69.479937,9.36334208 L69.479937,12.2826287 L69.5368789,12.2826287 C70.4157266,10.2754573 71.6919906,8.9982218 73.9040442,8.9982218 C74.498918,8.9982218 75.1229249,9.08946379 75.6339308,9.1808581 L75.3785014,13.7417389 Z" id="Flickr"></path>
            </g>
        </g>
    </g>
</svg>