<?xml version="1.0" encoding="UTF-8"?>
<svg width="88px" height="24px" viewBox="0 0 88 24" version="1.1" xmlns="http://www.w3.org/2000/svg" xmlns:xlink="http://www.w3.org/1999/xlink">
    <!-- Generator: Sketch 49.3 (51167) - http://www.bohemiancoding.com/sketch -->
    <title>Github</title>
    <desc>Created with Sketch.</desc>
    <defs></defs>
    <g id="Page-1" stroke="none" stroke-width="1" fill="none" fill-rule="evenodd">
        <g id="Homepage" transform="translate(-594.000000, -2366.000000)" fill="#297FCA">
            <g id="Logos-Copy" transform="translate(343.000000, 2362.000000)">
                <path d="M287.476859,12.0828505 L284.350969,12.0828505 C284.350969,12.0828505 284.346156,7.92804635 284.346156,7.92700856 C284.346156,7.76978293 284.265719,7.69108363 284.085078,7.69108363 L279.825156,7.69108363 C279.659641,7.69108363 279.570609,7.764421 279.570609,7.92458704 L279.570609,12.2193202 C279.570609,12.2193202 277.435922,12.7378708 277.291547,12.7797284 C277.147687,12.8215861 277.041984,12.9551155 277.041984,13.1142437 L277.041984,15.8130243 C277.041984,16.0070916 277.196156,16.1636254 277.386594,16.1636254 L279.570609,16.1636254 L279.570609,22.6558852 C279.570609,27.4783361 282.931969,27.9520886 285.200031,27.9520886 C286.236437,27.9520886 287.476172,27.6172274 287.680875,27.5411225 C287.804625,27.4952867 287.876469,27.3662544 287.876469,27.2263253 L287.880078,24.2575456 C287.880078,24.0639972 287.717484,23.9072905 287.534609,23.9072905 C287.352422,23.9072905 286.886297,23.9818386 286.406594,23.9818386 C284.871234,23.9818386 284.350969,23.26334 284.350969,22.3333045 L284.350969,16.1636254 L287.476859,16.1636254 C287.667469,16.1636254 287.821812,16.0070916 287.821812,15.8130243 L287.821812,12.4325867 C287.821812,12.2390383 287.667469,12.0828505 287.476859,12.0828505 L287.476859,12.0828505 Z M333.171031,11.649226 C330.822359,11.649226 329.224781,12.7037966 329.224781,12.7037966 L329.224781,5.27285307 C329.224781,5.07913171 329.071125,4.92277091 328.881031,4.92277091 L324.702063,4.92277091 C324.512141,4.92277091 324.357625,5.07913171 324.357625,5.27285307 L324.357625,27.2173311 C324.357625,27.4110525 324.512141,27.5686241 324.702578,27.5686241 L327.602109,27.5686241 C327.732734,27.5686241 327.831563,27.5008216 327.904438,27.3821673 C327.976625,27.2642048 328.080438,26.3703191 328.080438,26.3703191 C328.080438,26.3703191 329.789391,28 333.02425,28 C336.822,28 339,26.0615757 339,19.2972412 C339,12.5330797 335.521594,11.649226 333.171031,11.649226 L333.171031,11.649226 Z M331.540109,24.0133183 C330.105641,23.9693851 329.132828,23.3143648 329.132828,23.3143648 L329.132828,16.3649572 C329.132828,16.3649572 330.09275,15.7728963 331.270266,15.6670414 C332.759562,15.5328202 334.194375,15.9854709 334.194375,19.5604947 C334.194375,23.3302776 333.54675,24.0742022 331.540109,24.0133183 L331.540109,24.0133183 Z M322.012219,12.1205569 L317.876906,12.1205569 C317.687328,12.1205569 317.532812,12.2777826 317.532812,12.471331 L317.532812,23.2315143 C317.532812,23.2315143 316.482312,24.004843 314.991125,24.004843 C313.500109,24.004843 313.104281,23.3242238 313.104281,21.8550549 L313.104281,12.471331 C313.104281,12.2777826 312.950281,12.1205569 312.760359,12.1205569 L308.563687,12.1205569 C308.374109,12.1205569 308.219078,12.2777826 308.219078,12.471331 L308.219078,22.5654242 C308.219078,26.9293436 310.635812,27.9970596 313.960906,27.9970596 C316.688391,27.9970596 318.887703,26.4806711 318.887703,26.4806711 C318.887703,26.4806711 318.992375,27.2797717 319.039812,27.3747297 C319.08725,27.4691689 319.210656,27.5644729 319.344031,27.5644729 L322.013937,27.5527112 C322.203516,27.5527112 322.358547,27.3951397 322.358547,27.2024561 L322.357344,12.471331 C322.357344,12.2777826 322.202828,12.1205569 322.012219,12.1205569 L322.012219,12.1205569 Z M275.48325,22.5996714 L275.48325,12.4701202 C275.48325,12.2777826 275.328906,12.1205569 275.138469,12.1205569 L270.98425,12.1205569 C270.793813,12.1205569 270.623141,12.3184295 270.623141,12.5107671 L270.623141,27.0232639 C270.623141,27.4499697 270.887313,27.5767534 271.229172,27.5767534 L274.97175,27.5767534 C275.382531,27.5767534 275.48325,27.3740379 275.48325,27.0165182 L275.48325,22.5996714 Z M275.813937,8.20686673 C275.813937,6.69670501 274.610812,5.47643345 273.1265,5.47643345 C271.643734,5.47643345 270.43975,6.69670501 270.43975,8.20686673 C270.43975,9.7152988 271.643734,10.9388567 273.1265,10.9388567 C274.610812,10.9388567 275.813937,9.7152988 275.813937,8.20686673 L275.813937,8.20686673 Z M306.08525,5.27285307 C306.08525,5.07913171 305.932625,4.92277091 305.741672,4.92277091 L301.574391,4.92277091 C301.384125,4.92277091 301.229438,5.07913171 301.229438,5.27285307 C301.229438,5.27389086 301.230469,13.3773242 301.230469,13.3773242 L294.734797,13.3773242 L294.734797,5.27285307 C294.734797,5.07913171 294.581484,4.92277091 294.391047,4.92277091 L290.223766,4.92277091 C290.034188,4.92277091 289.8795,5.07913171 289.8795,5.27285307 L289.8795,27.2173311 C289.8795,27.4110525 290.034188,27.5686241 290.223766,27.5686241 L294.391047,27.5686241 C294.581484,27.5686241 294.734797,27.4110525 294.734797,27.2173311 L294.734797,17.8308397 L301.230469,17.8308397 C301.230469,17.8308397 301.218953,27.2166393 301.218953,27.2173311 C301.218953,27.4110525 301.373641,27.5686241 301.56425,27.5686241 L305.741328,27.5686241 C305.932281,27.5686241 306.084906,27.4110525 306.08525,27.2173311 L306.08525,5.27285307 Z M267.963547,14.2591023 L260.562266,14.2591023 C260.371484,14.2591023 260.216625,14.4151172 260.216625,14.6072818 L260.216625,18.2487244 C260.216625,18.440889 260.371484,18.5974228 260.562266,18.5974228 L263.449594,18.5974228 L263.449594,23.1215083 C263.449594,23.1215083 262.801281,23.3437689 261.008969,23.3437689 C258.894391,23.3437689 255.940547,22.566462 255.940547,16.0295771 C255.940547,9.49148145 259.016422,8.63132405 261.904094,8.63132405 C264.403844,8.63132405 265.480641,9.07411571 266.165906,9.28755513 C266.381094,9.35397388 266.580297,9.13828591 266.580297,8.94594828 L267.405984,5.42748422 C267.405984,5.33771513 267.375734,5.22926576 267.273641,5.15575543 C266.995547,4.95598028 265.297766,4 261.008969,4 C256.06825,4 251,6.11536798 251,16.2845282 C251,26.4540344 256.802672,27.9693851 261.692172,27.9693851 C265.740859,27.9693851 268.196953,26.2284874 268.196953,26.2284874 C268.298187,26.1721007 268.309187,26.0297501 268.309187,25.9643691 L268.309187,14.6072818 C268.309187,14.4151172 268.154328,14.2591023 267.963547,14.2591023 L267.963547,14.2591023 Z" id="Github"></path>
            </g>
        </g>
    </g>
</svg>