<?xml version="1.0" encoding="UTF-8"?>
<svg width="24px" height="15px" viewBox="0 0 24 15" version="1.1" xmlns="http://www.w3.org/2000/svg" xmlns:xlink="http://www.w3.org/1999/xlink">
    <!-- Generator: Sketch 49.3 (51167) - http://www.bohemiancoding.com/sketch -->
    <title>Google+</title>
    <desc>Created with Sketch.</desc>
    <defs></defs>
    <g id="Page-1" stroke="none" stroke-width="1" fill="none" fill-rule="evenodd">
        <g id="Homepage" transform="translate(-271.000000, -3034.000000)" fill="#3FA2F7">
            <g id="Contents-#19" transform="translate(0.000000, 2505.000000)">
                <g id="Social" transform="translate(271.000000, 528.000000)">
                    <path d="M7.48359472,7.01483703 L14.6705782,7.01483703 C15.1709637,10.609019 13.661049,16 7.48359472,16 C3.35088945,16 0,12.6418085 0,8.49970793 C0,4.35760738 3.35088945,1 7.48359472,1 C9.42266143,1 11.1894834,1.73893064 12.518979,2.95159469 C10.9530119,4.43412905 11.0043934,4.52233342 10.3889834,5.13917987 C9.620013,4.5018887 8.78156078,4.04451108 7.48359472,4.04451108 C5.02837776,4.04451108 3.11208238,6.03933175 3.11208238,8.49970793 C3.11208238,10.9606683 5.02837776,12.9554889 7.48359472,12.9554889 C9.90961766,12.9554889 10.8952077,11.9069668 11.5293018,9.98107403 C10.3586217,9.98107403 7.48359472,9.98516297 7.48359472,9.98516297 L7.48359472,7.01483703 Z M20.9683119,7.16320729 L23.5613246,7.16320729 L23.5613246,9.01958799 L20.9683119,9.01958799 L20.9683119,11.6931734 L19.1162434,11.6931734 L19.1162434,9.01958799 L16.4484939,9.01958799 L16.4484939,7.16320729 L19.1162434,7.16320729 L19.1162434,4.56439114 L20.9683119,4.56439114 L20.9683119,7.16320729 Z" id="Google+"></path>
                </g>
            </g>
        </g>
    </g>
</svg>