<?xml version="1.0" encoding="UTF-8"?>
<svg width="16px" height="13px" viewBox="0 0 16 13" version="1.1" xmlns="http://www.w3.org/2000/svg" xmlns:xlink="http://www.w3.org/1999/xlink">
    <!-- Generator: Sketch 49.3 (51167) - http://www.bohemiancoding.com/sketch -->
    <title>Inbox</title>
    <desc>Created with Sketch.</desc>
    <defs>
        <path d="M15.8320869,2.11964634 C15.8320871,2.11986351 15.8320871,2.12008067 15.832087,2.12029782 C15.832087,2.12042843 15.832087,2.12055904 15.832087,2.12068966 L15.832087,10.6034483 C15.832087,11.7714427 14.8622168,12.7241379 13.6731661,12.7241379 L2.15892096,12.7241379 C0.969870234,12.7241379 0,11.7714427 0,10.6034483 L0,2.12068966 C0,2.12055904 1.21284366e-08,2.12042843 3.63842599e-08,2.12029782 C-6.43555156e-08,2.11998622 4.40963415e-08,2.11967461 3.61778071e-07,2.11936299 C0.000734502907,0.951973935 0.970320462,0 2.15892096,0 L13.6731661,0 C14.8618628,0 15.8315094,0.952127984 15.8320868,2.11964634 Z M14.3160591,1.80537746 C14.1970458,1.57420434 13.9523115,1.4137931 13.6731212,1.4137931 L2.1589659,1.4137931 C1.87977553,1.4137931 1.63504128,1.57420434 1.51602798,1.80537746 L7.91604352,6.20608831 L14.3160591,1.80537746 Z M14.3927559,3.47839445 L8.32872693,7.64807774 C8.0809422,7.81845685 7.75114485,7.81845685 7.50336012,7.64807774 L1.4393312,3.47839445 L1.4393312,10.6034483 C1.4393312,10.9906263 1.764811,11.3103448 2.1589659,11.3103448 L13.6731212,11.3103448 C14.0672761,11.3103448 14.3927559,10.9906263 14.3927559,10.6034483 L14.3927559,3.47839445 Z" id="path-1"></path>
    </defs>
    <g id="Page-1" stroke="none" stroke-width="1" fill="none" fill-rule="evenodd">
        <g id="Employer-My-Profile" transform="translate(-577.000000, -25.000000)">
            <g id="Main-Nav-/-Candidates" transform="translate(0.000000, -3.000000)">
                <g id="Main-nav">
                    <g>
                        <g id="Inbox" transform="translate(571.250000, 28.241379)">
                            <g transform="translate(5.757078, 0.000000)">
                                <mask id="mask-2" fill="white">
                                    <use xlink:href="#path-1"></use>
                                </mask>
                                <use id="Combined-Shape" fill="#454545" fill-rule="nonzero" xlink:href="#path-1"></use>
                            </g>
                        </g>
                    </g>
                </g>
            </g>
        </g>
    </g>
</svg>