<?xml version="1.0" encoding="UTF-8"?>
<svg width="18px" height="14px" viewBox="0 0 18 14" version="1.1" xmlns="http://www.w3.org/2000/svg" xmlns:xlink="http://www.w3.org/1999/xlink">
    <!-- Generator: Sketch 50.2 (55047) - http://www.bohemiancoding.com/sketch -->
    <title>Group 7</title>
    <desc>Created with Sketch.</desc>
    <defs>
        <path d="M15.8319896,2.10842602 C15.8321064,2.11540326 15.8321181,2.12237837 15.8320253,2.12934894 L15.8320253,10.6034483 C15.8320253,11.7714427 14.8621626,12.7241379 13.6731212,12.7241379 L2.1589659,12.7241379 C0.969924454,12.7241379 6.17894559e-05,11.7714427 6.17894559e-05,10.6034483 L6.17894559e-05,2.12934894 C-3.10699896e-05,2.12237837 -1.93287187e-05,2.11540326 9.74441354e-05,2.10842602 C0.00685775054,0.946033922 0.974088694,0 2.1589659,0 L13.6731212,0 C14.8579984,0 15.8252293,0.946033922 15.8319896,2.10842602 Z M14.3160591,1.80537746 C14.1970458,1.57420434 13.9523115,1.4137931 13.6731212,1.4137931 L2.1589659,1.4137931 C1.87977553,1.4137931 1.63504128,1.57420434 1.51602798,1.80537746 L7.91604352,6.20608831 L14.3160591,1.80537746 Z M14.3927559,3.47839445 L8.32872693,7.64807774 C8.0809422,7.81845685 7.75114485,7.81845685 7.50336012,7.64807774 L1.4393312,3.47839445 L1.4393312,10.6034483 C1.4393312,10.9906263 1.764811,11.3103448 2.1589659,11.3103448 L13.6731212,11.3103448 C14.0672761,11.3103448 14.3927559,10.9906263 14.3927559,10.6034483 L14.3927559,3.47839445 Z" id="path-1"></path>
    </defs>
    <g id="Page-1" stroke="none" stroke-width="1" fill="none" fill-rule="evenodd">
        <g id="Employer-Inbox-/-View-Message" transform="translate(-575.000000, -24.000000)">
            <g id="Main-Nav-/-Candidates" transform="translate(0.000000, -3.000000)">
                <g id="Main-nav">
                    <g>
                        <g id="Inbox" transform="translate(571.250000, 27.241379)">
                            <g id="Group-7" transform="translate(4.000000, 0.000000)">
                                <rect id="Rectangle-4" fill="#73EACF" x="0" y="0" width="14.75" height="10.7586207"></rect>
                                <g id="Inbox" transform="translate(1.757078, 1.000000)">
                                    <mask id="mask-2" fill="white">
                                        <use xlink:href="#path-1"></use>
                                    </mask>
                                    <use id="Combined-Shape" fill="#3179CC" fill-rule="nonzero" xlink:href="#path-1"></use>
                                </g>
                            </g>
                        </g>
                    </g>
                </g>
            </g>
        </g>
    </g>
</svg>