<?xml version="1.0" encoding="UTF-8"?>
<svg width="16px" height="15px" viewBox="0 0 16 15" version="1.1" xmlns="http://www.w3.org/2000/svg" xmlns:xlink="http://www.w3.org/1999/xlink">
    <!-- Generator: Sketch 49.3 (51167) - http://www.bohemiancoding.com/sketch -->
    <title>briefcase</title>
    <desc>Created with Sketch.</desc>
    <defs>
        <path d="M4.31780822,2.82758621 L4.31780822,2.12068966 C4.31780822,0.949465099 5.28438251,0 6.47671233,0 L9.35525114,0 C10.547581,0 11.5141553,0.949465099 11.5141553,2.12068966 L11.5141553,2.82758621 L13.6730594,2.82758621 C14.8653892,2.82758621 15.8319635,3.77705131 15.8319635,4.94827586 L15.8319635,12.0172414 C15.8319635,13.1884659 14.8653892,14.137931 13.6730594,14.137931 L2.15890411,14.137931 C0.966574294,14.137931 1.59791003e-16,13.1884659 0,12.0172414 L0,4.94827586 C-1.59791003e-16,3.77705131 0.966574294,2.82758621 2.15890411,2.82758621 L4.31780822,2.82758621 Z M5.75707763,2.82758621 L10.0748858,2.82758621 L10.0748858,2.12068966 C10.0748858,1.73028147 9.75269441,1.4137931 9.35525114,1.4137931 L6.47671233,1.4137931 C6.07926906,1.4137931 5.75707763,1.73028147 5.75707763,2.12068966 L5.75707763,2.82758621 Z M4.31780822,4.24137931 L2.15890411,4.24137931 C1.76146084,4.24137931 1.43926941,4.55786768 1.43926941,4.94827586 L1.43926941,12.0172414 C1.43926941,12.4076496 1.76146084,12.7241379 2.15890411,12.7241379 L4.31780822,12.7241379 L4.31780822,4.24137931 Z M5.75707763,4.24137931 L5.75707763,12.7241379 L10.0748858,12.7241379 L10.0748858,4.24137931 L5.75707763,4.24137931 Z M11.5141553,4.24137931 L11.5141553,12.7241379 L13.6730594,12.7241379 C14.0705026,12.7241379 14.3926941,12.4076496 14.3926941,12.0172414 L14.3926941,4.94827586 C14.3926941,4.55786768 14.0705026,4.24137931 13.6730594,4.24137931 L11.5141553,4.24137931 Z" id="path-1"></path>
    </defs>
    <g id="Page-1" stroke="none" stroke-width="1" fill="none" fill-rule="evenodd">
        <g id="Employer-My-Profile" transform="translate(-478.000000, -24.000000)">
            <g id="Main-Nav-/-Candidates" transform="translate(0.000000, -3.000000)">
                <g id="My-Jobs" transform="translate(464.000000, 27.000000)">
                    <g id="briefcase" transform="translate(14.000000, 0.000000)">
                        <mask id="mask-2" fill="white">
                            <use xlink:href="#path-1"></use>
                        </mask>
                        <use id="Combined-Shape" fill="#454545" fill-rule="nonzero" xlink:href="#path-1"></use>
                    </g>
                </g>
            </g>
        </g>
    </g>
</svg>