<?xml version="1.0" encoding="UTF-8"?>
<svg width="14px" height="17px" viewBox="0 0 14 17" version="1.1" xmlns="http://www.w3.org/2000/svg" xmlns:xlink="http://www.w3.org/1999/xlink">
    <!-- Generator: Sketch 49.3 (51167) - http://www.bohemiancoding.com/sketch -->
    <title>Padnote</title>
    <desc>Created with Sketch.</desc>
    <defs>
        <path d="M10.0748858,1.4137931 L10.7945205,1.4137931 C11.9868504,1.4137931 12.9534247,2.3632582 12.9534247,3.53448276 L12.9534247,13.4310345 C12.9534247,14.602259 11.9868504,15.5517241 10.7945205,15.5517241 L2.15890411,15.5517241 C0.966574294,15.5517241 0,14.602259 0,13.4310345 L0,3.53448276 C0,2.3632582 0.966574294,1.4137931 2.15890411,1.4137931 L2.87853881,1.4137931 C2.87853881,0.632976733 3.52292168,1.56962566e-16 4.31780822,0 L8.63561644,0 C9.43050298,-1.56962566e-16 10.0748858,0.632976733 10.0748858,1.4137931 Z M2.87853881,2.82758621 L2.15890411,2.82758621 C1.76146084,2.82758621 1.43926941,3.14407457 1.43926941,3.53448276 L1.43926941,13.4310345 C1.43926941,13.8214427 1.76146084,14.137931 2.15890411,14.137931 L10.7945205,14.137931 C11.1919638,14.137931 11.5141553,13.8214427 11.5141553,13.4310345 L11.5141553,3.53448276 C11.5141553,3.14407457 11.1919638,2.82758621 10.7945205,2.82758621 L10.0748858,2.82758621 C10.0748858,3.60840258 9.43050298,4.24137931 8.63561644,4.24137931 L4.31780822,4.24137931 C3.52292168,4.24137931 2.87853881,3.60840258 2.87853881,2.82758621 Z M4.31780822,1.4137931 L4.31780822,2.82758621 L8.63561644,2.82758621 L8.63561644,1.4137931 L4.31780822,1.4137931 Z" id="path-1"></path>
    </defs>
    <g id="Symbols" stroke="none" stroke-width="1" fill="none" fill-rule="evenodd">
        <g id="Main-Nav-/-Candidates" transform="translate(-365.000000, -24.000000)">
            <g transform="translate(0.000000, -1.000000)" id="Main-nav">
                <g>
                    <g id="Candidates" transform="translate(341.750000, 25.000000)">
                        <g id="Padnote" transform="translate(24.000000, 0.000000)">
                            <g id="clipboard">
                                <polygon id="Rectangle-4" fill="#73EACF" points="5.25 0 12.9230594 3.36206897 13.25 17 5.25 17"></polygon>
                                <mask id="mask-2" fill="white">
                                    <use xlink:href="#path-1"></use>
                                </mask>
                                <use id="Combined-Shape" fill="#3179CC" fill-rule="nonzero" xlink:href="#path-1"></use>
                            </g>
                            <path d="M2.80361549,7.74781062 C2.50087767,7.74781062 2.26395242,7.98007663 2.26395242,8.27686097 C2.26395242,8.57364532 2.50087767,8.80591133 2.80361549,8.80591133 L10.5826613,8.80591133 C10.8853991,8.80591133 11.1223244,8.57364532 11.1223244,8.27686097 C11.1223244,7.98007663 10.8853991,7.74781062 10.5826613,7.74781062 L2.80361549,7.74781062 Z" id="Shape" fill="#3179CC"></path>
                            <path d="M6.69971965,10.3027367 L2.80361549,10.3027367 C2.50087767,10.3027367 2.26395242,10.5350027 2.26395242,10.8317871 C2.26395242,11.1285714 2.50087767,11.3608374 2.80361549,11.3608374 L6.68655714,11.3608374 C6.98929496,11.3608374 7.22622022,11.1285714 7.22622022,10.8317871 C7.22622022,10.5350027 6.98929496,10.3027367 6.69971965,10.3027367 L6.69971965,10.3027367 Z" id="Shape" fill="#3179CC"></path>
                            <path d="M2.26395242,5.7090312 C2.26395242,6.00581554 2.50087767,6.23808155 2.80361549,6.23808155 L10.5826613,6.23808155 C10.8853991,6.23808155 11.1223244,6.00581554 11.1223244,5.7090312 C11.1223244,5.41224685 10.8853991,5.17998084 10.5826613,5.17998084 L2.80361549,5.17998084 C2.50087767,5.17998084 2.26395242,5.42515052 2.26395242,5.7090312 L2.26395242,5.7090312 Z" id="Shape" fill="#3179CC"></path>
                        </g>
                    </g>
                </g>
            </g>
        </g>
    </g>
</svg>