<?xml version="1.0" encoding="UTF-8"?>
<svg width="15px" height="16px" viewBox="0 0 15 16" version="1.1" xmlns="http://www.w3.org/2000/svg" xmlns:xlink="http://www.w3.org/1999/xlink">
    <!-- Generator: Sketch 50.2 (55047) - http://www.bohemiancoding.com/sketch -->
    <title>home</title>
    <desc>Created with Sketch.</desc>
    <defs>
        <path d="M10.0748858,14.137931 L12.23379,14.137931 C12.6312332,14.137931 12.9534247,13.8214427 12.9534247,13.4310345 L12.9534247,6.00090407 L7.19634703,1.60243664 L1.43926941,6.00090407 L1.43926941,13.4310345 C1.43926941,13.8214427 1.76146084,14.137931 2.15890411,14.137931 L4.31780822,14.137931 L4.31780822,7.77586207 C4.31780822,7.38545388 4.63999965,7.06896552 5.03744292,7.06896552 L9.35525114,7.06896552 C9.75269441,7.06896552 10.0748858,7.38545388 10.0748858,7.77586207 L10.0748858,14.137931 Z M8.63561644,14.137931 L8.63561644,8.48275862 L5.75707763,8.48275862 L5.75707763,14.137931 L8.63561644,14.137931 Z M0.277821732,5.09718205 L6.75453406,0.148906191 C7.0144017,-0.0496353971 7.37829237,-0.0496353971 7.63816,0.148906191 L14.1148723,5.09718205 C14.2901657,5.23110799 14.3926941,5.4370309 14.3926941,5.65517241 L14.3926941,13.4310345 C14.3926941,14.602259 13.4261198,15.5517241 12.23379,15.5517241 L2.15890411,15.5517241 C0.966574294,15.5517241 0,14.602259 0,13.4310345 L0,5.65517241 C0,5.4370309 0.102528403,5.23110799 0.277821732,5.09718205 Z" id="path-1"></path>
    </defs>
    <g id="Symbols" stroke="none" stroke-width="1" fill="none" fill-rule="evenodd">
        <g id="Main-Nav-/-Candidates" transform="translate(-243.000000, -24.000000)">
            <g transform="translate(0.000000, -1.000000)" id="Main-nav">
                <g>
                    <g id="Dashboard" transform="translate(0.000000, 0.413793)">
                        <g id="home" transform="translate(243.000000, 25.000000)">
                            <mask id="mask-2" fill="white">
                                <use xlink:href="#path-1"></use>
                            </mask>
                            <use id="Combined-Shape" fill="#454545" fill-rule="nonzero" xlink:href="#path-1"></use>
                        </g>
                    </g>
                </g>
            </g>
        </g>
    </g>
</svg>