<?xml version="1.0" encoding="UTF-8"?>
<svg width="17px" height="16px" viewBox="0 0 17 16" version="1.1" xmlns="http://www.w3.org/2000/svg" xmlns:xlink="http://www.w3.org/1999/xlink">
    <!-- Generator: Sketch 50.2 (55047) - http://www.bohemiancoding.com/sketch -->
    <title>star</title>
    <desc>Created with Sketch.</desc>
    <defs>
        <path d="M6.40503588,5.86246242 C6.29919926,6.08687068 6.09472116,6.2424845 5.85812334,6.27867888 L2.29031885,6.82447622 L4.87138794,9.45562636 C5.04291551,9.63048211 5.12120786,9.88250583 5.08073146,10.1295049 L4.47175329,13.8456717 L7.66152347,12.090008 C7.87341732,11.9733807 8.12658268,11.9733807 8.33847653,12.090008 L11.5282467,13.8456717 L10.9192685,10.1295049 C10.8787921,9.88250583 10.9570845,9.63048211 11.1286121,9.45562636 L13.7096812,6.82447622 L10.1418767,6.27867888 C9.90527884,6.2424845 9.70080074,6.08687068 9.59496412,5.86246242 L8,2.48061651 L6.40503588,5.86246242 Z M5.26989821,4.83029153 L7.34791372,0.424218603 C7.61467669,-0.141406201 8.38532331,-0.141406201 8.65208628,0.424218603 L10.7301018,4.83029153 L15.3771815,5.54119477 C15.9734241,5.63240706 16.2110613,6.39947444 15.7793996,6.83951175 L12.417397,10.2667481 L13.2108362,15.1085512 C13.3127305,15.7303406 12.6891203,16.2044774 12.1556243,15.9108389 L8,13.6235648 L3.84437572,15.9108389 C3.31087973,16.2044774 2.68726954,15.7303406 2.78916383,15.1085512 L3.58260303,10.2667481 L0.220600381,6.83951175 C-0.211061295,6.39947444 0.0265758777,5.63240706 0.622818469,5.54119477 L5.26989821,4.83029153 Z" id="path-1"></path>
    </defs>
    <g id="Symbols" stroke="none" stroke-width="1" fill="none" fill-rule="evenodd">
        <g id="Main-Nav/-Candidate-Dashboard" transform="translate(-555.000000, -24.000000)">
            <g id="Save" transform="translate(546.250000, 24.000000)">
                <g id="star" transform="translate(9.000000, 0.000000)">
                    <mask id="mask-2" fill="white">
                        <use xlink:href="#path-1"></use>
                    </mask>
                    <use id="Shape" fill="#454545" fill-rule="nonzero" xlink:href="#path-1"></use>
                </g>
            </g>
        </g>
    </g>
</svg>