<?xml version="1.0" encoding="UTF-8"?>
<svg width="18px" height="15px" viewBox="0 0 18 15" version="1.1" xmlns="http://www.w3.org/2000/svg" xmlns:xlink="http://www.w3.org/1999/xlink">
    <!-- Generator: Sketch 50.2 (55047) - http://www.bohemiancoding.com/sketch -->
    <title>users</title>
    <desc>Created with Sketch.</desc>
    <defs>
        <path d="M12.9534247,13.4310345 C12.9534247,13.8214427 12.6312332,14.137931 12.23379,14.137931 C11.8363467,14.137931 11.5141553,13.8214427 11.5141553,13.4310345 L11.5141553,12.0172414 C11.5141553,10.8460168 10.547581,9.89655172 9.35525114,9.89655172 L3.59817352,9.89655172 C2.4058437,9.89655172 1.43926941,10.8460168 1.43926941,12.0172414 L1.43926941,13.4310345 C1.43926941,13.8214427 1.11707798,14.137931 0.719634703,14.137931 C0.322191431,14.137931 0,13.8214427 0,13.4310345 L0,12.0172414 C1.99738754e-16,10.0652005 1.61095716,8.48275862 3.59817352,8.48275862 L9.35525114,8.48275862 C11.3424675,8.48275862 12.9534247,10.0652005 12.9534247,12.0172414 L12.9534247,13.4310345 Z M6.47671233,7.06896552 C4.48949597,7.06896552 2.87853881,5.48652368 2.87853881,3.53448276 C2.87853881,1.58244183 4.48949597,0 6.47671233,0 C8.46392869,0 10.0748858,1.58244183 10.0748858,3.53448276 C10.0748858,5.48652368 8.46392869,7.06896552 6.47671233,7.06896552 Z M17.2712329,13.4310345 C17.2712329,13.8214427 16.9490414,14.137931 16.5515982,14.137931 C16.1541549,14.137931 15.8319635,13.8214427 15.8319635,13.4310345 L15.8319637,12.0177687 C15.8312298,11.0513268 15.1654014,10.2076117 14.2127856,9.96600142 C13.8279628,9.86839948 13.59655,9.48283891 13.6959107,9.10482778 C13.7952714,8.72681665 14.1877797,8.49950009 14.5726025,8.59710203 C16.1602955,8.99978581 17.2700096,10.4059776 17.2712329,12.0172414 L17.2712329,13.4310345 Z M11.3356576,1.48359914 C10.9506345,1.38676261 10.7184276,1.00166299 10.8170091,0.623455059 C10.9155906,0.245247129 11.3076297,0.0171505407 11.6926529,0.113987069 C13.284768,0.514417269 14.3983383,1.92363442 14.3983383,3.53801724 C14.3983383,5.15240006 13.284768,6.56161721 11.6926529,6.96204741 C11.3076297,7.05888394 10.9155906,6.83078735 10.8170091,6.45257942 C10.7184276,6.07437149 10.9506345,5.68927187 11.3356576,5.59243534 C12.2909267,5.35217722 12.9590689,4.50664693 12.9590689,3.53801724 C12.9590689,2.56938755 12.2909267,1.72385726 11.3356576,1.48359914 Z M6.47671233,5.65517241 C7.66904214,5.65517241 8.63561644,4.70570731 8.63561644,3.53448276 C8.63561644,2.3632582 7.66904214,1.4137931 6.47671233,1.4137931 C5.28438251,1.4137931 4.31780822,2.3632582 4.31780822,3.53448276 C4.31780822,4.70570731 5.28438251,5.65517241 6.47671233,5.65517241 Z" id="path-1"></path>
    </defs>
    <g id="Symbols" stroke="none" stroke-width="1" fill="none" fill-rule="evenodd">
        <g id="Main-Nav-/-Candidates" transform="translate(-680.000000, -26.000000)">
            <g transform="translate(0.000000, -1.000000)" id="Main-nav">
                <g>
                    <g id="My-Team" transform="translate(665.000000, 27.155172)">
                        <g id="Group-2">
                            <g id="users" transform="translate(15.112329, 0.086207)">
                                <mask id="mask-2" fill="white">
                                    <use xlink:href="#path-1"></use>
                                </mask>
                                <use id="Combined-Shape" fill="#707070" fill-rule="nonzero" xlink:href="#path-1"></use>
                            </g>
                        </g>
                    </g>
                </g>
            </g>
        </g>
    </g>
</svg>