<?xml version="1.0" encoding="UTF-8"?>
<svg width="17px" height="17px" viewBox="0 0 17 17" version="1.1" xmlns="http://www.w3.org/2000/svg" xmlns:xlink="http://www.w3.org/1999/xlink">
    <!-- Generator: Sketch 49.3 (51167) - http://www.bohemiancoding.com/sketch -->
    <title>Group 7</title>
    <desc>Created with Sketch.</desc>
    <defs>
        <path d="M1.75,13.9929213 L6.48257175,9.26034953 C6.82970445,8.91321682 7.39251777,8.91321682 7.73965047,9.26034953 C8.08678318,9.60748223 8.08678318,10.1702955 7.73965047,10.5174282 L3.00707872,15.25 L6.125,15.25 C6.60824916,15.25 7,15.6417508 7,16.125 C7,16.6082492 6.60824916,17 6.125,17 L0.875,17 C0.391750844,17 0,16.6082492 0,16.125 L0,10.875 C0,10.3917508 0.391750844,10 0.875,10 C1.35824916,10 1.75,10.3917508 1.75,10.875 L1.75,13.9929213 Z M13.9929213,1.75 L10.875,1.75 C10.3917508,1.75 10,1.35824916 10,0.875 C10,0.391750844 10.3917508,0 10.875,0 L16.125,0 C16.6082492,0 17,0.391750844 17,0.875 L17,6.125 C17,6.60824916 16.6082492,7 16.125,7 C15.6417508,7 15.25,6.60824916 15.25,6.125 L15.25,3.00707872 L10.5174282,7.73965047 C10.1702955,8.08678318 9.60748223,8.08678318 9.26034953,7.73965047 C8.91321682,7.39251777 8.91321682,6.82970445 9.26034953,6.48257175 L13.9929213,1.75 Z" id="path-1"></path>
        <path d="M1.7,14.0979185 L6.19895924,9.59895924 C6.53090488,9.26701359 7.06909512,9.26701359 7.40104076,9.59895924 C7.73298641,9.93090488 7.73298641,10.4690951 7.40104076,10.8010408 L2.90208153,15.3 L5.95,15.3 C6.41944204,15.3 6.8,15.680558 6.8,16.15 C6.8,16.619442 6.41944204,17 5.95,17 L0.85,17 C0.380557963,17 0,16.619442 0,16.15 L0,11.05 C0,10.580558 0.380557963,10.2 0.85,10.2 C1.31944204,10.2 1.7,10.580558 1.7,11.05 L1.7,14.0979185 Z M14.0979185,1.7 L11.05,1.7 C10.580558,1.7 10.2,1.31944204 10.2,0.85 C10.2,0.380557963 10.580558,0 11.05,0 L16.15,0 C16.619442,0 17,0.380557963 17,0.85 L17,5.95 C17,6.41944204 16.619442,6.8 16.15,6.8 C15.680558,6.8 15.3,6.41944204 15.3,5.95 L15.3,2.90208153 L10.8010408,7.40104076 C10.4690951,7.73298641 9.93090488,7.73298641 9.59895924,7.40104076 C9.26701359,7.06909512 9.26701359,6.53090488 9.59895924,6.19895924 L14.0979185,1.7 Z" id="path-3"></path>
    </defs>
    <g id="Page-1" stroke="none" stroke-width="1" fill="none" fill-rule="evenodd">
        <g id="Employer-Candidate" transform="translate(-273.000000, -942.000000)">
            <g id="Resume-Actions" transform="translate(258.000000, 941.000000)">
                <g id="Group-7" transform="translate(15.000000, 1.000000)">
                    <g id="maximize-2">
                        <mask id="mask-2" fill="white">
                            <use xlink:href="#path-1"></use>
                        </mask>
                        <use id="Combined-Shape" fill="#454545" fill-rule="nonzero" xlink:href="#path-1"></use>
                    </g>
                    <g id="maximize-2" transform="translate(8.500000, 8.500000) scale(-1, 1) translate(-8.500000, -8.500000) ">
                        <mask id="mask-4" fill="white">
                            <use xlink:href="#path-3"></use>
                        </mask>
                        <use id="Combined-Shape" fill="#454545" fill-rule="nonzero" xlink:href="#path-3"></use>
                    </g>
                </g>
            </g>
        </g>
    </g>
</svg>