<?xml version="1.0" encoding="UTF-8"?>
<svg width="17px" height="14px" viewBox="0 0 17 14" version="1.1" xmlns="http://www.w3.org/2000/svg" xmlns:xlink="http://www.w3.org/1999/xlink">
    <!-- Generator: Sketch 49.3 (51167) - http://www.bohemiancoding.com/sketch -->
    <title>mail</title>
    <desc>Created with Sketch.</desc>
    <defs>
        <path d="M16.2917882,2.24895354 C16.2917883,2.24917149 16.2917883,2.24938943 16.2917883,2.24960737 C16.2917883,2.24973825 16.2917883,2.24986912 16.2917883,2.25 L16.2917883,10.75 C16.2917883,11.9203684 15.3371492,12.875 14.1667717,12.875 L2.83334992,12.875 C1.66297242,12.875 0.708333333,11.9203684 0.708333333,10.75 L0.708333333,2.25 C0.708333333,2.24986912 0.708333345,2.24973825 0.708333369,2.24960737 C0.70833327,2.24929508 0.708333377,2.24898278 0.70833369,2.24867048 C0.709056388,1.07890875 1.66341563,0.125 2.83334992,0.125 L14.1667717,0.125 C15.3368004,0.125 16.2912192,1.07906264 16.2917881,2.24895354 Z M14.7995685,1.93404693 C14.6824242,1.70240395 14.4415334,1.54166667 14.1667275,1.54166667 L2.83339415,1.54166667 C2.55858828,1.54166667 2.31769741,1.70240395 2.20055313,1.93404693 L8.50006082,6.34370231 L14.7995685,1.93404693 Z M14.8750608,3.61046436 L8.90626331,7.78862261 C8.66236987,7.95934802 8.33775177,7.95934802 8.09385833,7.78862261 L2.12506082,3.61046436 L2.12506082,10.75 C2.12506082,11.137965 2.44542918,11.4583333 2.83339415,11.4583333 L14.1667275,11.4583333 C14.5546925,11.4583333 14.8750608,11.137965 14.8750608,10.75 L14.8750608,3.61046436 Z" id="path-1"></path>
    </defs>
    <g id="Symbols" stroke="none" stroke-width="1" fill="none" fill-rule="evenodd">
        <g id="Card/-Candidate-Horizontal-Avatar" transform="translate(-120.000000, -98.000000)">
            <g id="Candidate-1">
                <g id="Contact-Icons" transform="translate(120.000000, 72.000000)">
                    <g id="mail" transform="translate(0.000000, 26.500000)">
                        <mask id="mask-2" fill="white">
                            <use xlink:href="#path-1"></use>
                        </mask>
                        <use id="Combined-Shape" fill="#4A90E2" fill-rule="nonzero" xlink:href="#path-1"></use>
                    </g>
                </g>
            </g>
        </g>
    </g>
</svg>