<?xml version="1.0" encoding="UTF-8"?>
<svg width="15px" height="15px" viewBox="0 0 15 15" version="1.1" xmlns="http://www.w3.org/2000/svg" xmlns:xlink="http://www.w3.org/1999/xlink">
    <!-- Generator: Sketch 49.3 (51167) - http://www.bohemiancoding.com/sketch -->
    <title>phone</title>
    <desc>Created with Sketch.</desc>
    <defs>
        <path d="M13.0550796,10.5750619 C13.0631438,10.2423064 12.8320103,9.9695151 12.5233562,9.92594589 C11.8765825,9.84064301 11.2415347,9.68244606 10.6289166,9.45384459 C10.4005181,9.36798991 10.1430396,9.42290238 9.97202138,9.59200364 L9.17827138,10.3857536 C8.97932575,10.5846993 8.67197298,10.6261915 8.42739557,10.487121 C6.76488467,9.54179117 5.38835038,8.16525687 4.44302057,6.50274597 C4.30395002,6.25816857 4.34544227,5.95081579 4.5443879,5.75187017 L5.33567195,4.96059996 C5.50723916,4.78710191 5.56215164,4.5296234 5.47576886,4.29981493 C5.24769548,3.68860679 5.08949854,3.05355907 5.00498067,2.41253163 C4.96107468,2.10189647 4.69368819,1.87194409 4.37382964,1.8750619 L2.49941822,1.87506163 C2.32397892,1.87522684 2.15668683,1.9491209 2.03840752,2.07869321 C1.92012822,2.20826551 1.8617536,2.38158423 1.8765851,2.54656217 C2.07137053,4.38081519 2.69548946,6.1433921 3.70133826,7.69611098 C4.61171386,9.128777 5.82636454,10.3434277 7.26389287,11.2569246 C8.80499995,12.256327 10.5590466,12.8803042 12.3738348,13.0775988 C12.5491048,13.0934388 12.722931,13.0346523 12.8526091,12.9156815 C12.9822873,12.7967108 13.0557991,12.6285816 13.0550796,12.4500619 L13.0550796,10.5750619 Z M8.2943879,9.50187017 L9.04526371,9.40050284 C8.90791486,9.32240412 8.77277813,9.2409699 8.63995871,9.15630536 L8.2943879,9.50187017 Z M14.3050745,12.447525 C14.3072174,12.9754736 14.086682,13.479861 13.6976475,13.8367734 C13.308613,14.1936857 12.7871344,14.3700452 12.2500657,14.3214047 C10.229655,14.1018706 8.28890829,13.4114775 6.58862871,12.3088205 C5.00107988,11.3000259 3.65511561,9.95406166 2.64927971,8.37112417 C1.53964239,6.65823669 0.849092498,4.70805181 0.63261606,2.66881218 C0.585247195,2.14462999 0.760371068,1.62467383 1.11520898,1.23595692 C1.47004689,0.847240013 1.97192316,0.625557828 2.49882964,0.625061903 L4.36767861,0.625092172 C5.30880116,0.615829525 6.11096065,1.30568669 6.24346363,2.24333847 C6.31643951,2.7966478 6.45177562,3.33992562 6.64636233,3.86139885 C6.9039264,4.54659419 6.73918896,5.31902973 6.22202138,5.84200364 L5.77383852,6.2901865 C6.5087485,7.44309197 7.48705286,8.4213959 8.63995871,9.15630536 L9.09061769,8.70565421 C9.61111182,8.19095258 10.3835473,8.02621515 11.0673327,8.28325112 C11.5902159,8.47836592 12.1334937,8.61370203 12.6923873,8.68744005 C13.6322889,8.82003719 14.324362,9.63392951 14.3050796,10.5820474 L14.3050745,12.447525 Z" id="path-1"></path>
    </defs>
    <g id="Symbols" stroke="none" stroke-width="1" fill="none" fill-rule="evenodd">
        <g id="Card/-Candidate-Horizontal-Avatar" transform="translate(-121.000000, -119.000000)">
            <g id="Candidate-1">
                <g id="Contact-Icons" transform="translate(120.000000, 72.000000)">
                    <g id="phone" transform="translate(1.000000, 47.000000)">
                        <mask id="mask-2" fill="white">
                            <use xlink:href="#path-1"></use>
                        </mask>
                        <use id="Shape" fill="#4A90E2" fill-rule="nonzero" xlink:href="#path-1"></use>
                    </g>
                </g>
            </g>
        </g>
    </g>
</svg>