<?xml version="1.0" encoding="UTF-8"?>
<svg width="20px" height="20px" viewBox="0 0 20 20" version="1.1" xmlns="http://www.w3.org/2000/svg" xmlns:xlink="http://www.w3.org/1999/xlink">
    <!-- Generator: Sketch 49.3 (51167) - http://www.bohemiancoding.com/sketch -->
    <title>Candidate Social </title>
    <desc>Created with Sketch.</desc>
    <defs></defs>
    <g id="Symbols" stroke="none" stroke-width="1" fill="none" fill-rule="evenodd">
        <g id="Card/-Candidate-Horizontal-Avatar" transform="translate(-120.000000, -161.000000)" fill="#4A90E2">
            <g id="Candidate-1">
                <g id="Contact-Icons" transform="translate(120.000000, 72.000000)">
                    <g id="Candidate-Social-" transform="translate(0.000000, 89.000000)">
                        <path d="M10,20 C4.47715223,20 0,15.5228478 0,10 C0,4.47715223 4.47715223,0 10,0 C15.5228478,0 20,4.47715223 20,10 C20,15.5228478 15.5228478,20 10,20 Z M7.02702703,14.5945946 L7.02702703,7.02702703 L4.86486486,7.02702703 L4.86486486,14.5945946 L7.02702703,14.5945946 Z M5.93938509,3.78378378 C5.28142886,3.78378378 4.85174316,4.25013249 4.86517084,4.87193075 C4.85174316,5.46546547 5.28142886,5.94594595 5.92595742,5.94594595 C6.59734132,5.94594595 7.02702703,5.46546547 7.02702703,4.87193075 C7.01359935,4.25013249 6.59734132,3.78378378 5.93938509,3.78378378 Z M8.70870871,14.5945946 L10.990991,14.5945946 L10.990991,10.3264865 C10.990991,10.1145946 11.021021,9.88756757 11.0810811,9.75135135 C11.2312312,9.32756757 11.6066066,8.88864865 12.2372372,8.88864865 C13.0630631,8.88864865 13.3933934,9.53945946 13.3933934,10.492973 L13.3933934,14.5945946 L15.6756757,14.5945946 L15.6756757,10.2054054 C15.6756757,8.02594595 14.5495495,7.02702703 13.048048,7.02702703 C11.8318318,7.02702703 11.0810811,7.73837838 10.7807808,8.20756757 L10.7357357,8.20756757 L10.6306306,7.19351351 L8.64864865,7.19351351 C8.67867868,7.84432432 8.70870871,8.63135135 8.70870871,9.55459459 L8.70870871,14.5945946 Z" id="linkedin_c"></path>
                    </g>
                </g>
            </g>
        </g>
    </g>
</svg>