<?xml version="1.0" encoding="UTF-8"?>
<svg width="17px" height="17px" viewBox="0 0 17 17" version="1.1" xmlns="http://www.w3.org/2000/svg" xmlns:xlink="http://www.w3.org/1999/xlink">
    <!-- Generator: Sketch 49.3 (51167) - http://www.bohemiancoding.com/sketch -->
    <title>printer</title>
    <desc>Created with Sketch.</desc>
    <defs>
        <path d="M13.9090909,13.9090909 L13.9090909,16.2272727 C13.9090909,16.6540382 13.5631291,17 13.1363636,17 L3.86363636,17 C3.43687088,17 3.09090909,16.6540382 3.09090909,16.2272727 L3.09090909,13.9090909 L2.31818182,13.9090909 C1.03788535,13.9090909 0,12.8712056 0,11.5909091 L0,7.72727273 C-1.71579922e-16,6.44697626 1.03788535,5.40909091 2.31818182,5.40909091 L3.09090909,5.40909091 L3.09090909,0.772727273 C3.09090909,0.345961784 3.43687088,0 3.86363636,0 L13.1363636,0 C13.5631291,0 13.9090909,0.345961784 13.9090909,0.772727273 L13.9090909,5.40909091 L14.6818182,5.40909091 C15.9621146,5.40909091 17,6.44697626 17,7.72727273 L17,11.5909091 C17,12.8712056 15.9621146,13.9090909 14.6818182,13.9090909 L13.9090909,13.9090909 Z M13.9090909,12.3636364 L14.6818182,12.3636364 C15.1085837,12.3636364 15.4545455,12.0176746 15.4545455,11.5909091 L15.4545455,7.72727273 C15.4545455,7.30050724 15.1085837,6.95454545 14.6818182,6.95454545 L2.31818182,6.95454545 C1.89141633,6.95454545 1.54545455,7.30050724 1.54545455,7.72727273 L1.54545455,11.5909091 C1.54545455,12.0176746 1.89141633,12.3636364 2.31818182,12.3636364 L3.09090909,12.3636364 L3.09090909,10.0454545 C3.09090909,9.61868906 3.43687088,9.27272727 3.86363636,9.27272727 L13.1363636,9.27272727 C13.5631291,9.27272727 13.9090909,9.61868906 13.9090909,10.0454545 L13.9090909,12.3636364 Z M4.63636364,5.40909091 L12.3636364,5.40909091 L12.3636364,1.54545455 L4.63636364,1.54545455 L4.63636364,5.40909091 Z M4.63636364,15.4545455 L12.3636364,15.4545455 L12.3636364,10.8181818 L4.63636364,10.8181818 L4.63636364,15.4545455 Z" id="path-1"></path>
    </defs>
    <g id="Page-1" stroke="none" stroke-width="1" fill="none" fill-rule="evenodd">
        <g id="Employer-Candidate" transform="translate(-340.000000, -943.000000)">
            <g id="Resume-Actions" transform="translate(258.000000, 941.000000)">
                <g id="printer" transform="translate(82.000000, 2.000000)">
                    <mask id="mask-2" fill="white">
                        <use xlink:href="#path-1"></use>
                    </mask>
                    <use id="Combined-Shape" fill="#454545" fill-rule="nonzero" xlink:href="#path-1"></use>
                </g>
            </g>
        </g>
    </g>
</svg>