<?xml version="1.0" encoding="UTF-8"?>
<svg width="17px" height="19px" viewBox="0 0 17 19" version="1.1" xmlns="http://www.w3.org/2000/svg" xmlns:xlink="http://www.w3.org/1999/xlink">
    <!-- Generator: Sketch 49.3 (51167) - http://www.bohemiancoding.com/sketch -->
    <title>calendar</title>
    <desc>Created with Sketch.</desc>
    <defs>
        <path d="M15.3,6.90909091 L15.3,4.31818182 C15.3,3.84120863 14.919442,3.45454545 14.45,3.45454545 L12.75,3.45454545 L12.75,4.31818182 C12.75,4.79515501 12.369442,5.18181818 11.9,5.18181818 C11.430558,5.18181818 11.05,4.79515501 11.05,4.31818182 L11.05,3.45454545 L5.95,3.45454545 L5.95,4.31818182 C5.95,4.79515501 5.56944204,5.18181818 5.1,5.18181818 C4.63055796,5.18181818 4.25,4.79515501 4.25,4.31818182 L4.25,3.45454545 L2.55,3.45454545 C2.08055796,3.45454545 1.7,3.84120863 1.7,4.31818182 L1.7,6.90909091 L15.3,6.90909091 Z M15.3,8.63636364 L1.7,8.63636364 L1.7,16.4090909 C1.7,16.8860641 2.08055796,17.2727273 2.55,17.2727273 L14.45,17.2727273 C14.919442,17.2727273 15.3,16.8860641 15.3,16.4090909 L15.3,8.63636364 Z M5.95,1.72727273 L11.05,1.72727273 L11.05,0.863636364 C11.05,0.386663171 11.430558,0 11.9,0 C12.369442,0 12.75,0.386663171 12.75,0.863636364 L12.75,1.72727273 L14.45,1.72727273 C15.8583261,1.72727273 17,2.88726224 17,4.31818182 L17,16.4090909 C17,17.8400105 15.8583261,19 14.45,19 L2.55,19 C1.14167389,19 1.88737914e-16,17.8400105 0,16.4090909 L0,4.31818182 C-1.88737914e-16,2.88726224 1.14167389,1.72727273 2.55,1.72727273 L4.25,1.72727273 L4.25,0.863636364 C4.25,0.386663171 4.63055796,0 5.1,0 C5.56944204,0 5.95,0.386663171 5.95,0.863636364 L5.95,1.72727273 Z" id="path-1"></path>
    </defs>
    <g id="Page-1" stroke="none" stroke-width="1" fill="none" fill-rule="evenodd">
        <g id="Employer-Candidate" transform="translate(-933.000000, -1138.000000)">
            <g id="Group-5" transform="translate(933.000000, 1047.000000)">
                <g id="calendar" transform="translate(0.000000, 91.000000)">
                    <mask id="mask-2" fill="white">
                        <use xlink:href="#path-1"></use>
                    </mask>
                    <use id="Combined-Shape" fill="#454545" fill-rule="nonzero" xlink:href="#path-1"></use>
                </g>
            </g>
        </g>
    </g>
</svg>