<?xml version="1.0" encoding="UTF-8"?>
<svg width="14px" height="16px" viewBox="0 0 14 16" version="1.1" xmlns="http://www.w3.org/2000/svg" xmlns:xlink="http://www.w3.org/1999/xlink">
    <!-- Generator: Sketch 49.3 (51167) - http://www.bohemiancoding.com/sketch -->
    <title>trash-2</title>
    <desc>Created with Sketch.</desc>
    <defs>
        <path d="M10.5,2.90909091 L13.3,2.90909091 C13.6865993,2.90909091 14,3.234702 14,3.63636364 C14,4.03802527 13.6865993,4.36363636 13.3,4.36363636 L12.6,4.36363636 L12.6,13.8181818 C12.6,15.0231667 11.659798,16 10.5,16 L3.5,16 C2.34020203,16 1.4,15.0231667 1.4,13.8181818 L1.4,4.36363636 L0.7,4.36363636 C0.313400675,4.36363636 0,4.03802527 0,3.63636364 C0,3.234702 0.313400675,2.90909091 0.7,2.90909091 L3.5,2.90909091 L3.5,2.18181818 C3.5,0.976833273 4.44020203,0 5.6,0 L8.4,0 C9.55979797,0 10.5,0.976833273 10.5,2.18181818 L10.5,2.90909091 Z M9.1,2.90909091 L9.1,2.18181818 C9.1,1.78015655 8.78659932,1.45454545 8.4,1.45454545 L5.6,1.45454545 C5.21340068,1.45454545 4.9,1.78015655 4.9,2.18181818 L4.9,2.90909091 L9.1,2.90909091 Z M11.2,4.36363636 L2.8,4.36363636 L2.8,13.8181818 C2.8,14.2198435 3.11340068,14.5454545 3.5,14.5454545 L10.5,14.5454545 C10.8865993,14.5454545 11.2,14.2198435 11.2,13.8181818 L11.2,4.36363636 Z M4.9,7.27272727 C4.9,6.87106564 5.21340068,6.54545455 5.6,6.54545455 C5.98659932,6.54545455 6.3,6.87106564 6.3,7.27272727 L6.3,11.6363636 C6.3,12.0380253 5.98659932,12.3636364 5.6,12.3636364 C5.21340068,12.3636364 4.9,12.0380253 4.9,11.6363636 L4.9,7.27272727 Z M7.7,7.27272727 C7.7,6.87106564 8.01340068,6.54545455 8.4,6.54545455 C8.78659932,6.54545455 9.1,6.87106564 9.1,7.27272727 L9.1,11.6363636 C9.1,12.0380253 8.78659932,12.3636364 8.4,12.3636364 C8.01340068,12.3636364 7.7,12.0380253 7.7,11.6363636 L7.7,7.27272727 Z" id="path-1"></path>
    </defs>
    <g id="Page-1" stroke="none" stroke-width="1" fill="none" fill-rule="evenodd">
        <g id="Employer-My-Jobs-/-Saved" transform="translate(-806.000000, -370.000000)">
            <g id="trash-2" transform="translate(806.000000, 370.000000)">
                <mask id="mask-2" fill="white">
                    <use xlink:href="#path-1"></use>
                </mask>
                <use id="Combined-Shape" fill="#454545" fill-rule="nonzero" xlink:href="#path-1"></use>
            </g>
        </g>
    </g>
</svg>