<?xml version="1.0" encoding="UTF-8"?>
<svg width="17px" height="14px" viewBox="0 0 17 14" version="1.1" xmlns="http://www.w3.org/2000/svg" xmlns:xlink="http://www.w3.org/1999/xlink">
    <!-- Generator: Sketch 49.3 (51167) - http://www.bohemiancoding.com/sketch -->
    <title>user-x</title>
    <desc>Created with Sketch.</desc>
    <defs>
        <path d="M14.5208333,4.96005051 L15.7907994,3.70502525 C16.0674207,3.43165825 16.5159126,3.43165825 16.792534,3.70502525 C17.0691553,3.97839226 17.0691553,4.42160774 16.792534,4.69497475 L15.5225679,5.95 L16.792534,7.20502525 C17.0691553,7.47839226 17.0691553,7.92160774 16.792534,8.19497475 C16.5159126,8.46834175 16.0674207,8.46834175 15.7907994,8.19497475 L14.5208333,6.93994949 L13.2508673,8.19497475 C12.9742459,8.46834175 12.5257541,8.46834175 12.2491327,8.19497475 C11.9725113,7.92160774 11.9725113,7.47839226 12.2491327,7.20502525 L13.5190987,5.95 L12.2491327,4.69497475 C11.9725113,4.42160774 11.9725113,3.97839226 12.2491327,3.70502525 C12.5257541,3.43165825 12.9742459,3.43165825 13.2508673,3.70502525 L14.5208333,4.96005051 Z M12.0416667,13.3 C12.0416667,13.6865993 11.724535,14 11.3333333,14 C10.9421316,14 10.625,13.6865993 10.625,13.3 L10.625,11.9 C10.625,10.740202 9.67360509,9.8 8.5,9.8 L3.54166667,9.8 C2.36806157,9.8 1.41666667,10.740202 1.41666667,11.9 L1.41666667,13.3 C1.41666667,13.6865993 1.09953503,14 0.708333333,14 C0.317131636,14 0,13.6865993 0,13.3 L0,11.9 C2.35922393e-16,9.96700338 1.58565818,8.4 3.54166667,8.4 L8.5,8.4 C10.4560085,8.4 12.0416667,9.96700338 12.0416667,11.9 L12.0416667,13.3 Z M6.02083333,7 C4.06482484,7 2.47916667,5.43299662 2.47916667,3.5 C2.47916667,1.56700338 4.06482484,0 6.02083333,0 C7.97684182,0 9.5625,1.56700338 9.5625,3.5 C9.5625,5.43299662 7.97684182,7 6.02083333,7 Z M6.02083333,5.6 C7.19443843,5.6 8.14583333,4.65979797 8.14583333,3.5 C8.14583333,2.34020203 7.19443843,1.4 6.02083333,1.4 C4.84722824,1.4 3.89583333,2.34020203 3.89583333,3.5 C3.89583333,4.65979797 4.84722824,5.6 6.02083333,5.6 Z" id="path-1"></path>
    </defs>
    <g id="Page-1" stroke="none" stroke-width="1" fill="none" fill-rule="evenodd">
        <g id="Employer-Candidate" transform="translate(-933.000000, -1252.000000)">
            <g id="Group-5" transform="translate(933.000000, 1047.000000)">
                <g id="user-x" transform="translate(0.000000, 205.000000)">
                    <mask id="mask-2" fill="white">
                        <use xlink:href="#path-1"></use>
                    </mask>
                    <use id="Combined-Shape" fill="#454545" fill-rule="nonzero" xlink:href="#path-1"></use>
                </g>
            </g>
        </g>
    </g>
</svg>