<?xml version="1.0" encoding="UTF-8"?>
<svg width="17px" height="15px" viewBox="0 0 17 15" version="1.1" xmlns="http://www.w3.org/2000/svg" xmlns:xlink="http://www.w3.org/1999/xlink">
    <!-- Generator: Sketch 49.3 (51167) - http://www.bohemiancoding.com/sketch -->
    <title>check-square</title>
    <desc>Created with Sketch.</desc>
    <defs>
        <path d="M7.72727273,7.93933983 L15.680872,0.219669914 C15.9826408,-0.0732233047 16.4719047,-0.0732233047 16.7736734,0.219669914 C17.0754422,0.512563133 17.0754422,0.987436867 16.7736734,1.28033009 L8.27367342,9.53033009 C7.97190465,9.8232233 7.4826408,9.8232233 7.18087203,9.53033009 L4.86269021,7.28033009 C4.56092144,6.98743687 4.56092144,6.51256313 4.86269021,6.21966991 C5.16445899,5.9267767 5.65372283,5.9267767 5.9554916,6.21966991 L7.72727273,7.93933983 Z M13.9090909,7.5 C13.9090909,7.08578644 14.2550527,6.75 14.6818182,6.75 C15.1085837,6.75 15.4545455,7.08578644 15.4545455,7.5 L15.4545455,12.75 C15.4545455,13.9926407 14.4166601,15 13.1363636,15 L2.31818182,15 C1.03788535,15 0,13.9926407 0,12.75 L0,2.25 C0,1.00735931 1.03788535,0 2.31818182,0 L10.8181818,0 C11.2449473,0 11.5909091,0.335786438 11.5909091,0.75 C11.5909091,1.16421356 11.2449473,1.5 10.8181818,1.5 L2.31818182,1.5 C1.89141633,1.5 1.54545455,1.83578644 1.54545455,2.25 L1.54545455,12.75 C1.54545455,13.1642136 1.89141633,13.5 2.31818182,13.5 L13.1363636,13.5 C13.5631291,13.5 13.9090909,13.1642136 13.9090909,12.75 L13.9090909,7.5 Z" id="path-1"></path>
    </defs>
    <g id="Page-1" stroke="none" stroke-width="1" fill="none" fill-rule="evenodd">
        <g id="Employer-Candidate" transform="translate(-933.000000, -1179.000000)">
            <g id="Group-5" transform="translate(933.000000, 1047.000000)">
                <g id="check-square" transform="translate(0.000000, 132.000000)">
                    <mask id="mask-2" fill="white">
                        <use xlink:href="#path-1"></use>
                    </mask>
                    <use id="Combined-Shape" fill="#454545" fill-rule="nonzero" xlink:href="#path-1"></use>
                </g>
            </g>
        </g>
    </g>
</svg>