<?xml version="1.0" encoding="UTF-8"?>
<svg width="17px" height="19px" viewBox="0 0 17 19" version="1.1" xmlns="http://www.w3.org/2000/svg" xmlns:xlink="http://www.w3.org/1999/xlink">
    <!-- Generator: Sketch 49.3 (51167) - http://www.bohemiancoding.com/sketch -->
    <title>download</title>
    <desc>Created with Sketch.</desc>
    <defs>
        <path d="M7.65,10.8695428 L7.65,0.863636364 C7.65,0.386663171 8.03055796,0 8.5,0 C8.96944204,0 9.35,0.386663171 9.35,0.863636364 L9.35,10.8695428 L11.2989592,8.88931687 C11.6309049,8.55204589 12.1690951,8.55204589 12.5010408,8.88931687 C12.8329864,9.22658785 12.8329864,9.77341215 12.5010408,10.1106831 L9.10104076,13.5652286 C8.76909512,13.9024996 8.23090488,13.9024996 7.89895924,13.5652286 L4.49895924,10.1106831 C4.16701359,9.77341215 4.16701359,9.22658785 4.49895924,8.88931687 C4.83090488,8.55204589 5.36909512,8.55204589 5.70104076,8.88931687 L7.65,10.8695428 Z M0,13.8181818 C0,13.3412086 0.380557963,12.9545455 0.85,12.9545455 C1.31944204,12.9545455 1.7,13.3412086 1.7,13.8181818 L1.7,16.4090909 C1.7,16.8860641 2.08055796,17.2727273 2.55,17.2727273 L14.45,17.2727273 C14.919442,17.2727273 15.3,16.8860641 15.3,16.4090909 L15.3,13.8181818 C15.3,13.3412086 15.680558,12.9545455 16.15,12.9545455 C16.619442,12.9545455 17,13.3412086 17,13.8181818 L17,16.4090909 C17,17.8400105 15.8583261,19 14.45,19 L2.55,19 C1.14167389,19 0,17.8400105 0,16.4090909 L0,13.8181818 Z" id="path-1"></path>
    </defs>
    <g id="Page-1" stroke="none" stroke-width="1" fill="none" fill-rule="evenodd">
        <g id="Employer-Candidate" transform="translate(-419.000000, -941.000000)">
            <g id="Resume-Actions" transform="translate(258.000000, 941.000000)">
                <g id="Download">
                    <g id="download" transform="translate(161.000000, 0.000000)">
                        <mask id="mask-2" fill="white">
                            <use xlink:href="#path-1"></use>
                        </mask>
                        <use id="Combined-Shape" fill="#454545" fill-rule="nonzero" xlink:href="#path-1"></use>
                    </g>
                </g>
            </g>
        </g>
    </g>
</svg>