<?xml version="1.0" encoding="UTF-8"?>
<svg width="17px" height="16px" viewBox="0 0 17 16" version="1.1" xmlns="http://www.w3.org/2000/svg" xmlns:xlink="http://www.w3.org/1999/xlink">
    <!-- Generator: Sketch 49.3 (51167) - http://www.bohemiancoding.com/sketch -->
    <title>link</title>
    <desc>Created with Sketch.</desc>
    <defs>
        <path d="M6.51612476,9.63260983 C6.28180332,9.31934919 6.34579619,8.8754462 6.65905684,8.64112476 C6.97231748,8.40680332 7.41622047,8.47079619 7.65054191,8.78405684 C8.14295002,9.44234949 8.89699738,9.85432041 9.71697683,9.91304573 C10.5369563,9.97177105 11.3420159,9.67146031 11.9232994,9.08996603 L14.0396709,6.97374581 C15.1134254,5.86200563 15.0980692,4.09483894 14.0051568,3.00192652 C12.9122444,1.90901409 11.1450777,1.89365789 10.0406549,2.96024209 L8.82232159,4.17149209 C8.54489492,4.44730581 8.09640497,4.44599826 7.82059124,4.16857159 C7.54477752,3.89114492 7.54608507,3.44265497 7.82351174,3.16684124 L9.04916248,1.94842085 C10.7167727,0.337788964 13.3675228,0.360823265 15.0068914,2.00019191 C16.6462601,3.63956055 16.6692944,6.29031058 15.050034,7.96670064 L12.9251248,10.0916098 C12.0533357,10.963715 10.8457463,11.4141811 9.61577715,11.3260932 C8.38580797,11.2380052 7.25473692,10.6200488 6.51612476,9.63260983 Z M10.4838752,7.36739017 C10.7181967,7.68065081 10.6542038,8.1245538 10.3409432,8.35887524 C10.0276825,8.59319668 9.58377953,8.52920381 9.34945809,8.21594316 C8.85704998,7.55765051 8.10300262,7.14567959 7.28302317,7.08695427 C6.46304372,7.02822895 5.65798414,7.32853969 5.07670064,7.91003397 L2.96032915,10.0262542 C1.88657455,11.1379944 1.90193075,12.9051611 2.99484318,13.9980735 C4.08775561,15.0909859 5.8549223,15.1063421 6.9578827,14.041216 L8.1691327,12.829966 C8.44575407,12.5533447 8.89424593,12.5533447 9.1708673,12.829966 C9.44748868,13.1065874 9.44748868,13.5550793 9.1708673,13.8317006 L7.95083752,15.0515791 C6.28322725,16.662211 3.63247722,16.6391767 1.99310858,14.9998081 C0.353739932,13.3604394 0.330705631,10.7096894 1.94996603,9.03329936 L4.07487524,6.90839017 C4.94666431,6.03628496 6.15425367,5.58581885 7.38422285,5.67390683 C8.61419203,5.76199481 9.74526308,6.37995119 10.4838752,7.36739017 Z" id="path-1"></path>
    </defs>
    <g id="Symbols" stroke="none" stroke-width="1" fill="none" fill-rule="evenodd">
        <g id="Card/-Candidate-Horizontal-Avatar" transform="translate(-120.000000, -141.000000)">
            <g id="Candidate-1">
                <g id="Contact-Icons" transform="translate(120.000000, 72.000000)">
                    <g id="link" transform="translate(0.000000, 68.500000)">
                        <mask id="mask-2" fill="white">
                            <use xlink:href="#path-1"></use>
                        </mask>
                        <use id="Combined-Shape" fill="#4A90E2" fill-rule="nonzero" xlink:href="#path-1"></use>
                    </g>
                </g>
            </g>
        </g>
    </g>
</svg>