<?xml version="1.0" encoding="UTF-8"?>
<svg width="16px" height="16px" viewBox="0 0 16 16" version="1.1" xmlns="http://www.w3.org/2000/svg" xmlns:xlink="http://www.w3.org/1999/xlink">
    <!-- Generator: Sketch 50.2 (55047) - http://www.bohemiancoding.com/sketch -->
    <title>bell</title>
    <desc>Created with Sketch.</desc>
    <defs>
        <path d="M12.23379,9.1896551 L12.23379,5.65517235 C12.2337899,3.31272326 10.3006413,1.4137931 7.91598174,1.4137931 C5.53132213,1.4137931 3.59817355,3.31272326 3.59817352,5.65517234 L3.59817352,9.1896551 C3.59817352,9.70468175 3.4579969,10.1875479 3.21307627,10.6034482 L12.6188872,10.6034482 C12.3739666,10.1875479 12.23379,9.70468175 12.23379,9.1896551 Z M15.1123288,12.0172413 L0.719634703,12.0172413 C-0.239878234,12.0172413 -0.239878234,10.6034482 0.719634703,10.6034482 C1.51452125,10.6034482 2.15890411,9.97047147 2.15890411,9.1896551 L2.15890411,5.65517233 C2.15890416,2.53190688 4.73643559,-3.92406414e-16 7.91598174,0 C11.0955279,3.92406414e-16 13.6730593,2.53190688 13.6730594,5.65517234 L13.6730594,9.1896551 C13.6730594,9.97047147 14.3174422,10.6034482 15.1123288,10.6034482 C16.0718417,10.6034482 16.0718417,12.0172413 15.1123288,12.0172413 Z M9.78343379,14.4926318 C9.39720826,15.1466571 8.68570511,15.549219 7.91598174,15.549219 C7.14625836,15.549219 6.43475521,15.1466571 6.04852968,14.4926318 C5.77023195,14.0213689 6.11638369,13.4310344 6.6710137,13.4310344 L9.16094977,13.4310344 C9.71557978,13.4310344 10.0617315,14.0213689 9.78343379,14.4926318 Z" id="path-1"></path>
    </defs>
    <g id="Page-1" stroke="none" stroke-width="1" fill="none" fill-rule="evenodd">
        <g id="Candidate-Matches" transform="translate(-1149.000000, -33.000000)">
            <g id="Main-nav/-Matches" transform="translate(0.000000, -2.000000)">
                <g id="Main-Nav-/-Dashboard">
                    <g id="Main-Nav/-Candidate-Matches">
                        <g>
                            <g id="Main-Nav/-Candidate-Dashboard">
                                <g id="bell" transform="translate(1149.000000, 35.000000)">
                                    <mask id="mask-2" fill="white">
                                        <use xlink:href="#path-1"></use>
                                    </mask>
                                    <use id="Shape" fill="#707070" fill-rule="nonzero" xlink:href="#path-1"></use>
                                </g>
                            </g>
                        </g>
                    </g>
                </g>
            </g>
        </g>
    </g>
</svg>