<?xml version="1.0" encoding="UTF-8"?>
<svg width="17px" height="17px" viewBox="0 0 17 17" version="1.1" xmlns="http://www.w3.org/2000/svg" xmlns:xlink="http://www.w3.org/1999/xlink">
    <!-- Generator: Sketch 49.3 (51167) - http://www.bohemiancoding.com/sketch -->
    <title>phone-outgoing</title>
    <desc>Created with Sketch.</desc>
    <defs>
        <path d="M15.5145137,2.53159988 L11.5832535,6.456219 C11.2931942,6.74578825 10.8229153,6.74578825 10.532856,6.456219 C10.2427968,6.16664975 10.2427968,5.69716524 10.532856,5.407596 L14.4641162,1.48297687 L11.8007979,1.48297687 C11.3905922,1.48297687 11.0580548,1.15100119 11.0580548,0.741488437 C11.0580548,0.331975681 11.3905922,0 11.8007979,0 L16.2572568,0 C16.6674626,0 17,0.331975681 17,0.741488437 L17,5.19041906 C17,5.59993182 16.6674626,5.9319075 16.2572568,5.9319075 C15.8470511,5.9319075 15.5145137,5.59993182 15.5145137,5.19041906 L15.5145137,2.53159988 Z M16.2572507,14.76744 C16.2597974,15.3937884 15.9977154,15.9921843 15.5353911,16.4156185 C15.0730668,16.8390527 14.4533474,17.0482823 13.8151007,16.9905761 C11.4140668,16.7301249 9.10770469,15.9110553 7.08711106,14.6028835 C5.20048542,13.4060683 3.60095621,11.8092412 2.40563184,9.9312734 C1.086951,7.89913538 0.26630907,5.58547213 0.00905084273,3.16615596 C-0.0472417981,2.5442759 0.160873495,1.92740953 0.582558982,1.46624298 C1.00424447,1.00507644 1.60066874,0.742076793 2.22683862,0.741488437 L4.44775827,0.741524348 C5.56617801,0.730535314 6.51945556,1.54896909 6.67692065,2.66138182 C6.76364439,3.31781777 6.92447634,3.96235252 7.15572106,4.58101872 C7.46180737,5.3939218 7.26603521,6.31032502 6.65143892,6.9307716 L6.11882332,7.46248745 C6.99218229,8.83027318 8.15478848,9.99091485 9.52488917,10.8627978 L10.0604474,10.3281537 C10.6789969,9.71752117 11.5969508,9.52207972 12.4095538,9.82702245 C13.0309425,10.058503 13.6765679,10.2190633 14.340751,10.3065447 C15.4577197,10.4638555 16.2801718,11.4294423 16.2572568,12.5542718 L16.2572507,14.76744 Z M14.7717705,12.5459844 C14.7813539,12.1512094 14.5066774,11.8275748 14.1398762,11.7758851 C13.3712574,11.6746834 12.6165736,11.4870014 11.8885449,11.2157929 C11.6171187,11.1139365 11.3111341,11.1790836 11.1078979,11.3797022 L10.164614,12.3213925 C9.92818924,12.557418 9.56293457,12.6066436 9.27228146,12.4416529 C7.29657171,11.3201311 5.66071343,9.68703625 4.53729384,7.71466407 C4.37202392,7.42450197 4.42133286,7.05986432 4.65775766,6.82383891 L5.59811096,5.88509057 C5.80199955,5.67925571 5.86725694,5.37378796 5.76460059,5.10114744 C5.49356069,4.37602142 5.30556117,3.62261255 5.20512107,2.86210946 C5.15294367,2.49357765 4.83518449,2.22076639 4.45506809,2.22446531 L2.22753808,2.22446498 C2.01904794,2.22466099 1.82023985,2.31232754 1.67967802,2.46604972 C1.53911619,2.6197719 1.46974443,2.82539403 1.48737002,3.0211208 C1.7188509,5.19724466 2.460547,7.28833329 3.6558867,9.13045024 C4.73776709,10.8301387 6.18124467,12.2711778 7.88958759,13.3549337 C9.72102236,14.5406062 11.8055122,15.2808812 13.9621866,15.5149478 C14.1704755,15.5337401 14.3770487,15.4639969 14.5311568,15.3228522 C14.6852649,15.1817075 14.7726255,14.9822421 14.7717705,14.7704497 L14.7717705,12.5459844 Z" id="path-1"></path>
    </defs>
    <g id="Page-1" stroke="none" stroke-width="1" fill="none" fill-rule="evenodd">
        <g id="Employer-Candidate" transform="translate(-933.000000, -1105.000000)">
            <g id="Group-5" transform="translate(933.000000, 1047.000000)">
                <g id="phone-outgoing" transform="translate(0.000000, 58.000000)">
                    <mask id="mask-2" fill="white">
                        <use xlink:href="#path-1"></use>
                    </mask>
                    <use id="Combined-Shape" fill="#454545" fill-rule="nonzero" xlink:href="#path-1"></use>
                </g>
            </g>
        </g>
    </g>
</svg>