<?xml version="1.0" encoding="UTF-8"?>
<svg width="32px" height="29px" viewBox="0 0 32 29" version="1.1" xmlns="http://www.w3.org/2000/svg" xmlns:xlink="http://www.w3.org/1999/xlink">
    <!-- Generator: Sketch 49.3 (51167) - http://www.bohemiancoding.com/sketch -->
    <title>Save</title>
    <desc>Created with Sketch.</desc>
    <defs>
        <path d="M8.40503588,5.86246242 C8.29919926,6.08687068 8.09472116,6.2424845 7.85812334,6.27867888 L4.29031885,6.82447622 L6.87138794,9.45562636 C7.04291551,9.63048211 7.12120786,9.88250583 7.08073146,10.1295049 L6.47175329,13.8456717 L9.66152347,12.090008 C9.87341732,11.9733807 10.1265827,11.9733807 10.3384765,12.090008 L13.5282467,13.8456717 L12.9192685,10.1295049 C12.8787921,9.88250583 12.9570845,9.63048211 13.1286121,9.45562636 L15.7096812,6.82447622 L12.1418767,6.27867888 C11.9052788,6.2424845 11.7008007,6.08687068 11.5949641,5.86246242 L10,2.48061651 L8.40503588,5.86246242 Z M7.26989821,4.83029153 L9.34791372,0.424218603 C9.61467669,-0.141406201 10.3853233,-0.141406201 10.6520863,0.424218603 L12.7301018,4.83029153 L17.3771815,5.54119477 C17.9734241,5.63240706 18.2110613,6.39947444 17.7793996,6.83951175 L14.417397,10.2667481 L15.2108362,15.1085512 C15.3127305,15.7303406 14.6891203,16.2044774 14.1556243,15.9108389 L10,13.6235648 L5.84437572,15.9108389 C5.31087973,16.2044774 4.68726954,15.7303406 4.78916383,15.1085512 L5.58260303,10.2667481 L2.22060038,6.83951175 C1.7889387,6.39947444 2.02657588,5.63240706 2.62281847,5.54119477 L7.26989821,4.83029153 Z" id="path-1"></path>
    </defs>
    <g id="Symbols" stroke="none" stroke-width="1" fill="none" fill-rule="evenodd">
        <g id="Card/-Horizontal-Candidate-Saved" transform="translate(-50.000000, -102.000000)">
            <g id="Save" transform="translate(50.000000, 102.000000)">
                <text id="Saved" opacity="0.799999952" font-family="Lato-Bold, Lato" font-size="12" font-weight="bold" line-spacing="25" fill="#15740B">
                    <tspan x="0.312" y="23">Saved</tspan>
                </text>
                <g id="star" transform="translate(6.000000, 0.000000)">
                    <circle id="Oval-2" fill="#ADE86C" cx="6" cy="8" r="6"></circle>
                    <mask id="mask-2" fill="white">
                        <use xlink:href="#path-1"></use>
                    </mask>
                    <use id="Shape" fill="#4D9544" fill-rule="nonzero" xlink:href="#path-1"></use>
                </g>
            </g>
        </g>
    </g>
</svg>