<?xml version="1.0" encoding="UTF-8"?>
<svg width="18px" height="17px" viewBox="0 0 18 17" version="1.1" xmlns="http://www.w3.org/2000/svg" xmlns:xlink="http://www.w3.org/1999/xlink">
    <!-- Generator: Sketch 49.3 (51167) - http://www.bohemiancoding.com/sketch -->
    <title>star</title>
    <desc>Created with Sketch.</desc>
    <defs>
        <path d="M7.20566536,6.22886632 C7.08659917,6.46730009 6.85656131,6.63263978 6.59038876,6.67109631 L2.57660871,7.25100599 L5.48031144,10.046603 C5.67327994,10.2323872 5.76135884,10.5001624 5.7158229,10.7625989 L5.03072246,14.7110261 L8.6192139,12.8456335 C8.85759448,12.721717 9.14240552,12.721717 9.3807861,12.8456335 L12.9692775,14.7110261 L12.2841771,10.7625989 C12.2386412,10.5001624 12.3267201,10.2323872 12.5196886,10.046603 L15.4233913,7.25100599 L11.4096112,6.67109631 C11.1434387,6.63263978 10.9134008,6.46730009 10.7943346,6.22886632 L9,2.63565505 L7.20566536,6.22886632 Z M5.92863549,5.13218475 L8.26640293,0.450732265 C8.56651128,-0.150244088 9.43348872,-0.150244088 9.73359707,0.450732265 L12.0713645,5.13218475 L17.2993292,5.88751944 C17.9701021,5.9844325 18.237444,6.7994416 17.7518246,7.26698123 L13.9695716,10.9084198 L14.8621907,16.0528356 C14.9768218,16.7134869 14.2752603,17.2172573 13.6750773,16.9052663 L9,14.4750376 L4.32492269,16.9052663 C3.72473969,17.2172573 3.02317823,16.7134869 3.13780931,16.0528356 L4.03042841,10.9084198 L0.248175429,7.26698123 C-0.237443957,6.7994416 0.0298978624,5.9844325 0.700670778,5.88751944 L5.92863549,5.13218475 Z" id="path-1"></path>
    </defs>
    <g id="Page-1" stroke="none" stroke-width="1" fill="none" fill-rule="evenodd">
        <g id="Employer-Candidate" transform="translate(-805.000000, -854.000000)">
            <g id="Save" transform="translate(799.000000, 854.000000)">
                <g id="star" transform="translate(6.000000, 0.000000)">
                    <mask id="mask-2" fill="white">
                        <use xlink:href="#path-1"></use>
                    </mask>
                    <use id="Shape" fill="#454545" fill-rule="nonzero" xlink:href="#path-1"></use>
                </g>
            </g>
        </g>
    </g>
</svg>