<?xml version="1.0" encoding="UTF-8"?>
<svg width="19px" height="18px" viewBox="0 0 19 18" version="1.1" xmlns="http://www.w3.org/2000/svg" xmlns:xlink="http://www.w3.org/1999/xlink">
    <!-- Generator: Sketch 49.3 (51167) - http://www.bohemiancoding.com/sketch -->
    <title>Group 2</title>
    <desc>Created with Sketch.</desc>
    <defs>
        <path d="M8.5,17 C3.80557963,17 0,13.1944204 0,8.5 C0,3.80557963 3.80557963,0 8.5,0 C13.1944204,0 17,3.80557963 17,8.5 C17,13.1944204 13.1944204,17 8.5,17 Z M8.5,15.4545455 C12.3408894,15.4545455 15.4545455,12.3408894 15.4545455,8.5 C15.4545455,4.6591106 12.3408894,1.54545455 8.5,1.54545455 C4.6591106,1.54545455 1.54545455,4.6591106 1.54545455,8.5 C1.54545455,12.3408894 4.6591106,15.4545455 8.5,15.4545455 Z M5.40909091,9.27272727 C4.98232542,9.27272727 4.63636364,8.92676549 4.63636364,8.5 C4.63636364,8.07323451 4.98232542,7.72727273 5.40909091,7.72727273 L11.5909091,7.72727273 C12.0176746,7.72727273 12.3636364,8.07323451 12.3636364,8.5 C12.3636364,8.92676549 12.0176746,9.27272727 11.5909091,9.27272727 L5.40909091,9.27272727 Z" id="path-1"></path>
    </defs>
    <g id="Page-1" stroke="none" stroke-width="1" fill="none" fill-rule="evenodd">
        <g id="Employer-Candidate-Not-Interested" transform="translate(-1118.000000, -853.000000)">
            <g id="Group-2" transform="translate(1118.000000, 853.000000)">
                <circle id="Oval-2" fill="#FFBFC7" cx="7.5" cy="7.5" r="7.5"></circle>
                <g id="Not-Interested" transform="translate(2.000000, 1.000000)">
                    <g id="minus-circle">
                        <mask id="mask-2" fill="white">
                            <use xlink:href="#path-1"></use>
                        </mask>
                        <use id="Combined-Shape" fill="#D0021B" fill-rule="nonzero" xlink:href="#path-1"></use>
                    </g>
                </g>
            </g>
        </g>
    </g>
</svg>