<?xml version="1.0" encoding="UTF-8"?>
<svg width="22px" height="21px" viewBox="0 0 22 21" version="1.1" xmlns="http://www.w3.org/2000/svg" xmlns:xlink="http://www.w3.org/1999/xlink">
    <!-- Generator: Sketch 49.3 (51167) - http://www.bohemiancoding.com/sketch -->
    <title>Group</title>
    <desc>Created with Sketch.</desc>
    <defs>
        <path d="M2.72727273,1.81818182 C2.22519568,1.81818182 1.81818182,2.22519568 1.81818182,2.72727273 L1.81818182,6.36363636 C1.81818182,6.86571341 2.22519568,7.27272727 2.72727273,7.27272727 L17.2727273,7.27272727 C17.7748043,7.27272727 18.1818182,6.86571341 18.1818182,6.36363636 L18.1818182,2.72727273 C18.1818182,2.22519568 17.7748043,1.81818182 17.2727273,1.81818182 L2.72727273,1.81818182 Z M2.72727273,0 L17.2727273,0 C18.7789584,-2.01858732e-16 20,1.22104159 20,2.72727273 L20,6.36363636 C20,7.8698675 18.7789584,9.09090909 17.2727273,9.09090909 L2.72727273,9.09090909 C1.22104159,9.09090909 2.01858732e-16,7.8698675 0,6.36363636 L0,2.72727273 C-2.01858732e-16,1.22104159 1.22104159,3.02788098e-16 2.72727273,0 Z M2.72727273,10.9090909 L17.2727273,10.9090909 C18.7789584,10.9090909 20,12.1301325 20,13.6363636 L20,17.2727273 C20,18.7789584 18.7789584,20 17.2727273,20 L2.72727273,20 C1.22104159,20 2.01858732e-16,18.7789584 0,17.2727273 L0,13.6363636 C-2.01858732e-16,12.1301325 1.22104159,10.9090909 2.72727273,10.9090909 Z M2.72727273,12.7272727 C2.22519568,12.7272727 1.81818182,13.1342866 1.81818182,13.6363636 L1.81818182,17.2727273 C1.81818182,17.7748043 2.22519568,18.1818182 2.72727273,18.1818182 L17.2727273,18.1818182 C17.7748043,18.1818182 18.1818182,17.7748043 18.1818182,17.2727273 L18.1818182,13.6363636 C18.1818182,13.1342866 17.7748043,12.7272727 17.2727273,12.7272727 L2.72727273,12.7272727 Z" id="path-1"></path>
    </defs>
    <g id="Page-1" stroke="none" stroke-width="1" fill="none" fill-rule="evenodd">
        <g id="Employer-Matches-Card-View" transform="translate(-371.000000, -437.000000)">
            <g id="View-Type" transform="translate(333.000000, 437.000000)">
                <g id="Group" transform="translate(38.000000, 0.000000)">
                    <rect id="Rectangle" fill="#73EACF" x="4" y="0" width="18" height="7" rx="2"></rect>
                    <rect id="Rectangle" fill="#73EACF" x="4" y="11" width="18" height="7" rx="2"></rect>
                    <g id="server" transform="translate(0.000000, 1.000000)">
                        <mask id="mask-2" fill="white">
                            <use xlink:href="#path-1"></use>
                        </mask>
                        <use id="Combined-Shape" fill="#3179CC" fill-rule="nonzero" xlink:href="#path-1"></use>
                    </g>
                </g>
            </g>
        </g>
    </g>
</svg>