<?xml version="1.0" encoding="UTF-8"?>
<svg width="13px" height="7px" viewBox="0 0 13 7" version="1.1" xmlns="http://www.w3.org/2000/svg" xmlns:xlink="http://www.w3.org/1999/xlink">
    <!-- Generator: Sketch 49.3 (51167) - http://www.bohemiancoding.com/sketch -->
    <title>Icon</title>
    <desc>Created with Sketch.</desc>
    <defs></defs>
    <g id="Page-1" stroke="none" stroke-width="1" fill="none" fill-rule="evenodd" opacity="0.400000006">
        <g id="Employer-Matches-Mosaic-View" transform="translate(-443.000000, -495.000000)" fill="#F5A623">
            <path d="M455.393322,497.6466 C455.453052,497.69698 455.858134,498.023273 455.865769,498.440439 C455.871158,498.734244 455.74092,498.951302 455.55275,499.133046 C454.539595,500.159952 452.336342,501.985875 449.441934,501.999058 L449.441934,502 L449.43385,502 L449.425766,502 L449.425766,501.999058 C446.536747,501.985875 444.326758,500.159952 443.314052,499.133046 C443.125882,498.951302 442.995195,498.734244 443.000135,498.440439 C443.006872,498.023273 443.412852,497.69698 443.472133,497.6466 C444.711631,496.58909 446.800814,495.052263 449.425317,495 L449.433401,495 L449.441485,495 C452.066886,495.052263 454.153824,496.58909 455.393322,497.6466 Z M449.433401,501.208986 C450.857028,501.198628 452.001318,499.989507 452.001318,498.498823 C452.001318,497.008139 450.857028,495.798547 449.433401,495.78913 C448.013367,495.798547 446.865035,497.008139 446.865035,498.498823 C446.865035,499.989507 448.013367,501.199099 449.433401,501.208986 Z M449.441485,497.445551 C449.98893,497.459676 450.421856,497.925809 450.421856,498.498823 C450.421856,499.071837 449.98893,499.538441 449.441485,499.552095 L449.441485,499.553037 C449.438341,499.553037 449.435647,499.552095 449.433401,499.552095 C449.430707,499.552095 449.428012,499.553037 449.425317,499.553037 L449.425317,499.552095 C448.881465,499.538441 448.444946,499.071837 448.444946,498.498823 C448.444946,497.925809 448.881914,497.459676 449.425317,497.445551 L449.425317,497.44508 L449.433401,497.44508 C449.436096,497.44508 449.43879,497.44508 449.441485,497.445551 Z" id="Icon"></path>
        </g>
    </g>
</svg>