<?xml version="1.0" encoding="UTF-8"?>
<svg width="13px" height="17px" viewBox="0 0 13 17" version="1.1" xmlns="http://www.w3.org/2000/svg" xmlns:xlink="http://www.w3.org/1999/xlink">
    <!-- Generator: Sketch 49.3 (51167) - http://www.bohemiancoding.com/sketch -->
    <title>award</title>
    <desc>Created with Sketch.</desc>
    <defs>
        <path d="M6.38560032,10.9257038 L5.85398094,14.9282266 L8.13556551,13.5592758 C8.3598822,13.4246858 8.6401178,13.4246858 8.86443449,13.5592758 L11.1462496,14.9283649 L10.6151544,10.9254 C9.96160552,11.1885162 9.24771469,11.3333333 8.5,11.3333333 C7.75257314,11.3333333 7.03894409,11.1886277 6.38560032,10.9257038 Z M5.05714374,10.1679064 C3.70517447,9.13226455 2.83333333,7.50128031 2.83333333,5.66666667 C2.83333333,2.53705308 5.37038642,0 8.5,0 C11.6296136,0 14.1666667,2.53705308 14.1666667,5.66666667 C14.1666667,7.50091967 13.2951683,9.13162332 11.9436535,10.1672956 L12.7438468,16.1985046 C12.8218591,16.7864981 12.1858507,17.2042286 11.6772322,16.8990575 L8.5,14.9927182 L5.32276783,16.8990575 C4.8141089,17.2042528 4.1780639,16.7864331 4.25616654,16.1984041 L5.05714374,10.1679064 Z M10.8591688,9.20229009 C11.999245,8.44005297 12.75,7.14103393 12.75,5.66666667 C12.75,3.31945648 10.8472102,1.41666667 8.5,1.41666667 C6.15278981,1.41666667 4.25,3.31945648 4.25,5.66666667 C4.25,8.01387685 6.15278981,9.91666667 8.5,9.91666667 C9.3243876,9.91666667 10.0939535,9.68194685 10.7455137,9.27569104 C10.7807139,9.24783833 10.8187288,9.22320176 10.8591688,9.20229009 Z" id="path-1"></path>
    </defs>
    <g id="Page-1" stroke="none" stroke-width="1" fill="none" fill-rule="evenodd">
        <g id="Employer-Candidate" transform="translate(-935.000000, -1216.000000)">
            <g id="award" transform="translate(933.000000, 1216.000000)">
                <mask id="mask-2" fill="white">
                    <use xlink:href="#path-1"></use>
                </mask>
                <use id="Combined-Shape" fill="#000000" fill-rule="nonzero" xlink:href="#path-1"></use>
                <g id="COLOR/-black" mask="url(#mask-2)" fill="#000000" fill-rule="evenodd">
                    <rect id="Rectangle" x="0" y="0" width="17" height="17"></rect>
                </g>
            </g>
        </g>
    </g>
</svg>