<?xml version="1.0" encoding="UTF-8"?>
<svg width="15px" height="17px" viewBox="0 0 15 17" version="1.1" xmlns="http://www.w3.org/2000/svg" xmlns:xlink="http://www.w3.org/1999/xlink">
    <!-- Generator: Sketch 49.3 (51167) - http://www.bohemiancoding.com/sketch -->
    <title>map-pin</title>
    <desc>Created with Sketch.</desc>
    <defs>
        <path d="M11.2017165,14.0340274 C10.4799598,14.7958816 9.70876256,15.4899592 8.93733355,16.1042452 C8.66690732,16.3195846 8.41528969,16.5099108 8.18864826,16.6735963 C8.05053369,16.7733457 7.94989464,16.8430475 7.89291264,16.8810355 C7.65498389,17.0396547 7.34501611,17.0396547 7.10708736,16.8810355 C7.05010536,16.8430475 6.94946631,16.7733457 6.81135174,16.6735963 C6.58471031,16.5099108 6.33309268,16.3195846 6.06266645,16.1042452 C5.29123744,15.4899592 4.52004018,14.7958816 3.79828352,14.0340274 C1.69336778,11.8121719 0.416666667,9.47155316 0.416666667,7.08333323 C0.416666725,3.17131629 3.58798306,-1.57281595e-16 7.5,0 C11.4120169,1.57281595e-16 14.5833333,3.17131629 14.5833333,7.08333323 C14.5833333,9.47155316 13.3066322,11.8121719 11.2017165,14.0340274 Z M8.05485395,14.996015 C8.77756557,14.4205224 9.50050893,13.7698734 10.1732835,13.0597224 C12.0527428,11.0758488 13.1666667,9.03365499 13.1666667,7.08333324 C13.1666666,3.9537197 10.6296135,1.41666667 7.5,1.41666667 C4.37038645,1.41666667 1.83333338,3.9537197 1.83333333,7.08333324 C1.83333333,9.03365499 2.94725722,11.0758488 4.82671648,13.0597224 C5.49949107,13.7698734 6.22243443,14.4205224 6.94514605,14.996015 C7.14241285,15.1530978 7.32836266,15.2954739 7.5,15.4222701 C7.67163734,15.2954739 7.85758715,15.1530978 8.05485395,14.996015 Z M7.5,9.91666657 C5.93519321,9.91666657 4.66666667,8.64814003 4.66666667,7.08333324 C4.66666667,5.51852645 5.93519321,4.24999991 7.5,4.24999991 C9.06480679,4.24999991 10.3333333,5.51852645 10.3333333,7.08333324 C10.3333333,8.64814003 9.06480679,9.91666657 7.5,9.91666657 Z M7.5,8.49999991 C8.2824034,8.49999991 8.91666667,7.86573663 8.91666667,7.08333324 C8.91666667,6.30092984 8.2824034,5.66666657 7.5,5.66666657 C6.7175966,5.66666657 6.08333333,6.30092984 6.08333333,7.08333324 C6.08333333,7.86573663 6.7175966,8.49999991 7.5,8.49999991 Z" id="path-1"></path>
    </defs>
    <g id="Symbols" stroke="none" stroke-width="1" fill="none" fill-rule="evenodd">
        <g id="Card/-Candidate-Horizontal-Avatar" transform="translate(-121.000000, -72.000000)">
            <g id="Candidate-1">
                <g id="Contact-Icons" transform="translate(120.000000, 72.000000)">
                    <g id="map-pin" transform="translate(1.000000, 0.000000)">
                        <mask id="mask-2" fill="white">
                            <use xlink:href="#path-1"></use>
                        </mask>
                        <use id="Combined-Shape" fill="#4A90E2" fill-rule="nonzero" xlink:href="#path-1"></use>
                    </g>
                </g>
            </g>
        </g>
    </g>
</svg>