<?xml version="1.0" encoding="UTF-8"?>
<svg width="16px" height="16px" viewBox="0 0 16 16" version="1.1" xmlns="http://www.w3.org/2000/svg" xmlns:xlink="http://www.w3.org/1999/xlink">
    <!-- Generator: Sketch 49.3 (51167) - http://www.bohemiancoding.com/sketch -->
    <title>Instagram</title>
    <desc>Created with Sketch.</desc>
    <defs></defs>
    <g id="Page-1" stroke="none" stroke-width="1" fill="none" fill-rule="evenodd">
        <g id="Homepage" transform="translate(-391.000000, -3033.000000)" fill="#3FA2F7">
            <g id="Contents-#19" transform="translate(0.000000, 2505.000000)">
                <g id="Social" transform="translate(271.000000, 528.000000)">
                    <path d="M134.098137,0 L121.901863,0 C120.851431,0 120,0.849248561 120,1.89749884 L120,14.1025012 C120,15.150315 120.851431,16 121.901863,16 L134.098137,16 C135.148569,16 136,15.150315 136,14.1025012 L136,1.89749884 C136,0.849248561 135.148569,0 134.098137,0 L134.098137,0 Z M131.500205,2.49974088 C131.500205,2.22393148 131.724081,2.00005455 131.999891,2.00005455 L133.499823,2.00005455 C133.776069,2.00005455 133.999945,2.22393148 133.999945,2.49974088 L133.999945,4.0001091 C133.999945,4.2759185 133.776069,4.49979543 133.499823,4.49979543 L131.999891,4.49979543 C131.724081,4.49979543 131.500205,4.2759185 131.500205,4.0001091 L131.500205,2.49974088 L131.500205,2.49974088 Z M128.018547,4.94885852 C129.717917,4.94885852 131.095655,6.32354145 131.095655,8.01854731 C131.095655,9.71398958 129.717917,11.0882361 128.018547,11.0882361 C126.319614,11.0882361 124.941876,9.71398958 124.941876,8.01854731 C124.941876,6.32354145 126.319614,4.94885852 128.018547,4.94885852 L128.018547,4.94885852 Z M134.500068,13.9999454 C134.500068,14.2757548 134.276191,14.5000682 133.999945,14.5000682 L122.000055,14.5000682 C121.723809,14.5000682 121.499932,14.2757548 121.499932,13.9999454 L121.499932,6.49984998 L123.499986,6.49984998 C123.239451,6.87472384 123.151297,7.5742847 123.151297,8.01854731 C123.151297,10.695906 125.335079,12.8744511 128.018547,12.8744511 C130.702452,12.8744511 132.886234,10.695906 132.886234,8.01854731 C132.886234,7.5742847 132.822955,6.88563402 132.500014,6.49984998 L134.500068,6.49984998 L134.500068,13.9999454 L134.500068,13.9999454 Z" id="Instagram"></path>
                </g>
            </g>
        </g>
    </g>
</svg>