<?xml version="1.0" encoding="UTF-8"?>
<svg width="22px" height="22px" viewBox="0 0 22 22" version="1.1" xmlns="http://www.w3.org/2000/svg" xmlns:xlink="http://www.w3.org/1999/xlink">
    <!-- Generator: Sketch 49.3 (51167) - http://www.bohemiancoding.com/sketch -->
    <title>Instagram</title>
    <desc>Created with Sketch.</desc>
    <defs></defs>
    <g id="Page-1" stroke="none" stroke-width="1" fill="none" fill-rule="evenodd">
        <g id="Employer-Post-A-Job-Onboarding" transform="translate(-1271.000000, -2223.000000)" fill="#3FA2F7">
            <g id="Footer-#6" transform="translate(3.000000, 2177.000000)">
                <g id="Social" transform="translate(1183.000000, 45.000000)">
                    <path d="M104.384938,1 L87.6150615,1 C86.1707171,1 85,2.16771677 85,3.60906091 L85,20.3909391 C85,21.8316832 86.1707171,23 87.6150615,23 L104.384938,23 C105.829283,23 107,21.8316832 107,20.3909391 L107,3.60906091 C107,2.16771677 105.829283,1 104.384938,1 L104.384938,1 Z M100.812781,4.43714371 C100.812781,4.05790579 101.120612,3.75007501 101.49985,3.75007501 L103.562256,3.75007501 C103.942094,3.75007501 104.249925,4.05790579 104.249925,4.43714371 L104.249925,6.50015002 C104.249925,6.87938794 103.942094,7.18721872 103.562256,7.18721872 L101.49985,7.18721872 C101.120612,7.18721872 100.812781,6.87938794 100.812781,6.50015002 L100.812781,4.43714371 L100.812781,4.43714371 Z M96.0255026,7.80468047 C98.3621362,7.80468047 100.256526,9.69486949 100.256526,12.0255026 C100.256526,14.3567357 98.3621362,16.2463246 96.0255026,16.2463246 C93.6894689,16.2463246 91.7950795,14.3567357 91.7950795,12.0255026 C91.7950795,9.69486949 93.6894689,7.80468047 96.0255026,7.80468047 L96.0255026,7.80468047 Z M104.937594,20.249925 C104.937594,20.6291629 104.629763,20.9375938 104.249925,20.9375938 L87.750075,20.9375938 C87.370237,20.9375938 87.0624062,20.6291629 87.0624062,20.249925 L87.0624062,9.93729373 L89.8124812,9.93729373 C89.4542454,10.4527453 89.3330333,11.4146415 89.3330333,12.0255026 C89.3330333,15.7068707 92.3357336,18.7023702 96.0255026,18.7023702 C99.7158716,18.7023702 102.718572,15.7068707 102.718572,12.0255026 C102.718572,11.4146415 102.631563,10.4677468 102.187519,9.93729373 L104.937594,9.93729373 L104.937594,20.249925 L104.937594,20.249925 Z" id="Instagram"></path>
                </g>
            </g>
        </g>
    </g>
</svg>