<?xml version="1.0" encoding="UTF-8"?>
<svg width="25px" height="25px" viewBox="0 0 25 25" version="1.1" xmlns="http://www.w3.org/2000/svg" xmlns:xlink="http://www.w3.org/1999/xlink">
    <!-- Generator: Sketch 49.3 (51167) - http://www.bohemiancoding.com/sketch -->
    <title>linkedin_c</title>
    <desc>Created with Sketch.</desc>
    <defs></defs>
    <g id="Page-1" stroke="none" stroke-width="1" fill="none" fill-rule="evenodd">
        <g id="Employer-Company-Profile-Preview" transform="translate(-1007.000000, -504.000000)" fill="#FFFFFF">
            <g id="Company-Profile" transform="translate(303.000000, 379.000000)">
                <g id="Social" transform="translate(570.000000, 125.000000)">
                    <path d="M146.5,25 C139.59644,25 134,19.4035597 134,12.5 C134,5.59644029 139.59644,0 146.5,0 C153.40356,0 159,5.59644029 159,12.5 C159,19.4035597 153.40356,25 146.5,25 Z M143,18 L143,9 L140,9 L140,18 L143,18 Z M141.490897,5 C140.577983,5 139.981794,5.64705882 140.000425,6.50980392 C139.981794,7.33333333 140.577983,8 141.472266,8 C142.403811,8 143,7.33333333 143,6.50980392 C142.981369,5.64705882 142.403811,5 141.490897,5 Z M145.076923,19 L148,19 L148,13.36 C148,13.08 148.038462,12.78 148.115385,12.6 C148.307692,12.04 148.788462,11.46 149.596154,11.46 C150.653846,11.46 151.076923,12.32 151.076923,13.58 L151.076923,19 L154,19 L154,13.2 C154,10.32 152.557692,9 150.634615,9 C149.076923,9 148.115385,9.94 147.730769,10.56 L147.673077,10.56 L147.538462,9.22 L145,9.22 C145.038462,10.08 145.076923,11.12 145.076923,12.34 L145.076923,19 Z" id="linkedin_c"></path>
                </g>
            </g>
        </g>
    </g>
</svg>