<?xml version="1.0" encoding="UTF-8"?>
<svg width="105px" height="28px" viewBox="0 0 105 28" version="1.1" xmlns="http://www.w3.org/2000/svg" xmlns:xlink="http://www.w3.org/1999/xlink">
    <!-- Generator: Sketch 49.3 (51167) - http://www.bohemiancoding.com/sketch -->
    <title>Netflix</title>
    <desc>Created with Sketch.</desc>
    <defs></defs>
    <g id="Page-1" stroke="none" stroke-width="1" fill="none" fill-rule="evenodd">
        <g id="Employers" transform="translate(-767.000000, -2567.000000)" fill="#D4E7F8">
            <g id="Call-to-Action-#5" transform="translate(0.000000, 2071.000000)">
                <g id="Logos" transform="translate(150.000000, 487.000000)">
                    <path d="M703.239552,9.00062279 L703.239552,34.9271847 L698.751722,34.9271847 L698.751722,9.00062279 L703.239552,9.00053382 Z M706.638372,35.2330624 L712.102879,21.9427734 L707.473843,9.01459103 L711.961673,9.01459103 L714.509724,16.1117014 L717.411697,9.07064192 L717.45424,9.00035588 L722,9.00035588 L716.633251,22.0264049 L722,37 C720.442204,36.7775758 718.87083,36.583622 717.298551,36.3878887 L714.239984,27.8574769 L711.027538,35.6788004 C709.568405,35.5248829 708.095694,35.3727448 706.638372,35.2330624 Z M669.542362,33.4657689 C669.244561,33.4657689 668.961243,33.4800041 668.664348,33.4657689 L668.664348,9 L679.367975,9 L679.367975,13.0641344 L673.167565,13.0641344 L673.167565,19.91124 L678.561469,19.91124 L678.561469,23.9611393 L673.167565,23.9611393 L673.167565,33.4800041 C671.96369,33.4800041 670.759815,33.4657689 669.542362,33.4657689 Z M655.610358,33.7164854 L655.610358,13.0648462 L651.419424,13.0648462 L651.419424,9.00071176 L664.290027,9.00071176 L664.290027,13.0648462 L660.098188,13.0648462 L660.098188,33.5768031 C658.597417,33.6195085 657.111129,33.6613242 655.610358,33.7164854 Z M621.30408,36.4571961 C619.873913,36.624459 618.443745,36.8193026 617.02806,36.999911 L617,36.999911 L617,9.00026691 L621.30408,9.00026691 L621.488735,9.00026691 L627.222982,24.9907853 L627.222982,9.00026691 L631.526157,9.00026691 L631.526157,35.3166049 C629.88418,35.4829782 628.241297,35.6511309 626.613803,35.8317393 L621.30408,21.011172 L621.30408,36.4571961 Z M647.086379,13.0644903 L640.871487,13.0644903 L640.871487,19.9107062 L646.266296,19.9107062 L646.266296,23.9748406 L640.871487,23.9748406 L640.871487,30.4598397 C642.937988,30.3068119 645.005395,30.1680192 647.071896,30.0568071 L647.071896,32.9509904 L647.071896,34.1200519 C643.490141,34.3282409 639.922869,34.5791353 636.369175,34.885191 L636.369175,30.8210566 L636.369175,9.00035588 L647.086379,9.00035588 L647.086379,13.0644903 Z M688.274207,29.8614297 C690.340708,29.9584067 692.408115,30.0705085 694.490004,30.2235363 L694.490004,32.9646918 L694.490004,34.2725459 C690.921827,34.0367762 687.35365,33.8552781 683.77099,33.7307206 L683.77099,29.6665862 L683.77099,9.00071176 L688.274207,9.00071176 L688.274207,29.8614297 Z" id="Netflix"></path>
                </g>
            </g>
        </g>
    </g>
</svg>