<?xml version="1.0" encoding="UTF-8"?>
<svg width="141px" height="98px" viewBox="0 0 141 98" version="1.1" xmlns="http://www.w3.org/2000/svg" xmlns:xlink="http://www.w3.org/1999/xlink">
    <!-- Generator: Sketch 49.3 (51167) - http://www.bohemiancoding.com/sketch -->
    <title>Icon</title>
    <desc>Created with Sketch.</desc>
    <defs></defs>
    <g id="Symbols" stroke="none" stroke-width="1" fill="none" fill-rule="evenodd">
        <g id="Image-Frame-/-Image-Frame-555px" transform="translate(-207.000000, -229.000000)" fill="#3FA2F7">
            <path d="M344.599,300.656023 L307.2408,262.512694 C306.6008,261.859647 305.4518,261.859647 304.8118,262.512694 L271.9858,296.029088 C271.3288,296.699136 271.3398,297.776213 272.0108,298.43326 C272.6808,299.090306 273.7578,299.078306 274.4148,298.408258 L306.0268,266.132952 L344.5848,305.501764 C344.589512,305.506575 344.594245,305.511353 344.599,305.516096 L344.599,323.599757 L286.34664,323.599757 C286.267837,323.427394 286.158603,323.265378 286.0188,323.121723 L237.7818,273.51818 C237.1418,272.860133 235.9858,272.860133 235.3448,273.51818 L210.4,298.686838 L210.4,232.401243 L344.599,232.401243 L344.599,300.656023 Z M210.4,303.518107 L236.5638,277.142439 L281.74081,323.599757 L210.4,323.599757 L210.4,303.518107 Z M265.5,273.003543 C272.393,273.003543 278,267.395143 278,260.50265 C278,253.609158 272.393,248.001757 265.5,248.001757 C258.607,248.001757 253,253.609158 253,260.50265 C253,267.395143 258.607,273.003543 265.5,273.003543 Z M265.5,251.402 C270.518,251.402 274.6,255.484292 274.6,260.50265 C274.6,265.520009 270.518,269.6023 265.5,269.6023 C260.482,269.6023 256.4,265.520009 256.4,260.50265 C256.4,255.484292 260.482,251.402 265.5,251.402 Z M346.3,327 L208.7,327 C207.761,327 207,326.238946 207,325.299879 L207,230.700121 C207,229.761054 207.761,229 208.7,229 L346.3,229 C347.238,229 348,229.761054 348,230.700121 L348,325.299879 C348,326.238946 347.238,327 346.3,327 L346.3,327 Z" id="Icon"></path>
        </g>
    </g>
</svg>