<?xml version="1.0" encoding="UTF-8"?>
<svg width="21px" height="18px" viewBox="0 0 21 18" version="1.1" xmlns="http://www.w3.org/2000/svg" xmlns:xlink="http://www.w3.org/1999/xlink">
    <!-- Generator: Sketch 49.3 (51167) - http://www.bohemiancoding.com/sketch -->
    <title>Twitter</title>
    <desc>Created with Sketch.</desc>
    <defs></defs>
    <g id="Page-1" stroke="none" stroke-width="1" fill="none" fill-rule="evenodd">
        <g id="Employer-Company-Profile-Preview" transform="translate(-912.000000, -506.000000)" fill="#FFFFFF">
            <g id="Company-Profile" transform="translate(303.000000, 379.000000)">
                <g id="Social" transform="translate(570.000000, 125.000000)">
                    <path d="M59.4207941,2.33276729 C58.5875898,2.8529685 57.6669159,3.23129666 56.6828825,3.43372529 C55.8990201,2.55134408 54.778736,2 53.5384615,2 C51.1610819,2 49.2317037,4.03466726 49.2317037,6.54397488 C49.2317037,6.90038768 49.2687101,7.24584281 49.3427229,7.57861011 C45.7620751,7.38886931 42.5879369,5.58200634 40.4617521,2.829323 C40.0905668,3.50293166 39.8786212,4.28438691 39.8786212,5.11659351 C39.8786212,6.69219186 40.6389341,8.08323988 41.7956639,8.89814488 C41.0902998,8.87622953 40.4247457,8.66976387 39.8427362,8.33180609 L39.8427362,8.38717119 C39.8427362,10.5896639 41.3280378,12.427093 43.3005901,12.8429079 C42.9394975,12.9496011 42.5582196,13.003236 42.165167,13.003236 C41.8876191,13.003236 41.6167997,12.9755535 41.3543908,12.9224953 C41.9027581,14.7270514 43.4929111,16.0413957 45.3785545,16.0765756 C43.9044669,17.2957611 42.0457373,18.022428 40.0277681,18.022428 C39.6801324,18.022428 39.3364216,18.0016661 39,17.9601423 C40.9063893,19.2473807 43.1721891,20 45.6045177,20 C53.530051,20 57.8626011,13.0770562 57.8626011,7.07167345 C57.8626011,6.87385858 57.8592369,6.67662042 57.8519478,6.48284259 C58.6935626,5.84210695 59.424719,5.04219666 60,4.13097946 C59.228473,4.49200602 58.3975115,4.7365352 57.5261795,4.84611195 C58.4160147,4.28438691 59.0989507,3.39393163 59.4207941,2.33276729" id="Twitter"></path>
                </g>
            </g>
        </g>
    </g>
</svg>