<?xml version="1.0" encoding="UTF-8"?>
<svg width="17px" height="15px" viewBox="0 0 17 15" version="1.1" xmlns="http://www.w3.org/2000/svg" xmlns:xlink="http://www.w3.org/1999/xlink">
    <!-- Generator: Sketch 49.3 (51167) - http://www.bohemiancoding.com/sketch -->
    <title>Twitter</title>
    <desc>Created with Sketch.</desc>
    <defs></defs>
    <g id="Page-1" stroke="none" stroke-width="1" fill="none" fill-rule="evenodd">
        <g id="Homepage" transform="translate(-351.000000, -3034.000000)" fill="#3FA2F7">
            <g id="Contents-#19" transform="translate(0.000000, 2505.000000)">
                <g id="Social" transform="translate(271.000000, 528.000000)">
                    <path d="M94.3147144,2.12893458 C93.6801591,1.43413574 92.7732625,1 91.7692308,1 C89.8446853,1 88.2828078,2.60212438 88.2828078,4.57798696 C88.2828078,4.85863119 88.3127653,5.13064721 88.3726804,5.39267265 C85.4740608,5.2432682 82.9045203,3.82051999 81.1833231,1.65302008 C80.8828398,2.18342861 80.7112648,2.79875699 80.7112648,3.45404766 C80.7112648,4.694695 81.3267562,5.79002493 82.2631565,6.43169209 C81.6921475,6.41443565 81.1533656,6.2518618 80.682215,5.98574931 L80.682215,6.02934453 C80.682215,7.76361692 81.884602,9.21043333 83.4814301,9.5378516 C83.189117,9.62186323 82.8804635,9.6640961 82.5622781,9.6640961 C82.3375965,9.6640961 82.1183617,9.64229849 81.9059354,9.60051973 C82.3498518,11.0214515 83.6371185,12.0563839 85.1635917,12.084085 C83.9702828,13.0440881 82.4655969,13.6162754 80.8320028,13.6162754 C80.5505834,13.6162754 80.2723413,13.5999272 80,13.5672307 C81.5432676,14.5808196 83.3774864,15.1734422 85.3465143,15.1734422 C91.7624222,15.1734422 95.2697247,9.72222306 95.2697247,4.99350391 C95.2697247,4.83774182 95.2670013,4.68243384 95.2611006,4.52985057 C95.9424078,4.0253267 96.5342963,3.39546658 97,2.6779619 C96.3754305,2.96223907 95.7027474,3.15478463 94.9973834,3.24106684 C95.7177262,2.79875699 96.2705791,2.09760052 96.531119,1.26202544 C95.8566203,1.67163888 95.1113128,1.96953955 94.3147144,2.12893458 Z" id="Twitter"></path>
                </g>
            </g>
        </g>
    </g>
</svg>