<?xml version="1.0" encoding="UTF-8"?>
<svg width="67px" height="67px" viewBox="0 0 67 67" version="1.1" xmlns="http://www.w3.org/2000/svg" xmlns:xlink="http://www.w3.org/1999/xlink">
    <!-- Generator: Sketch 49.3 (51167) - http://www.bohemiancoding.com/sketch -->
    <title>Userpic</title>
    <desc>Created with Sketch.</desc>
    <defs>
        <circle id="path-1" cx="33.5" cy="33.5" r="33.5"></circle>
    </defs>
    <g id="Symbols" stroke="none" stroke-width="1" fill="none" fill-rule="evenodd">
        <g id="Card/-Candidate-Horizontal-Avatar" transform="translate(-34.000000, -17.000000)">
            <g id="Candidate-1">
                <g id="Userpic" transform="translate(34.000000, 17.000000)">
                    <mask id="mask-2" fill="white">
                        <use xlink:href="#path-1"></use>
                    </mask>
                    <use id="Mask" fill="#E4F1FD" xlink:href="#path-1"></use>
                    <path d="M33.4532218,52.7150753 C30.0428,52.7150753 27.0972364,50.9226529 26.3970255,48.6146843 L27.7945236,48.6146843 C28.3602473,48.6146843 28.8177964,48.1440985 28.8177964,47.564109 L28.8177964,43.1909582 C30.2328364,43.8968369 31.8203709,44.295486 33.5,44.295486 C35.1796291,44.295486 36.7671636,43.8968369 38.1822036,43.1924568 L38.1822036,47.564109 C38.1822036,48.1440985 38.6412145,48.6146843 39.2069382,48.6146843 L40.51088,48.6146843 C39.8092073,50.9226529 36.8636436,52.7150753 33.4532218,52.7150753 M24.8972,34.1314321 L24.2481527,27.5447296 C24.2086836,27.1835475 24.1823709,26.8178694 24.1823709,26.4446978 C24.1823709,21.1483595 28.3631709,16.8396519 33.5,16.8396519 C38.6382909,16.8396519 42.8176291,21.1483595 42.8176291,26.4446978 C42.8176291,26.8178694 42.7927782,27.1835475 42.7474618,27.6136689 L42.1013382,34.1374269 C41.6803345,38.7323825 37.9833964,42.195834 33.5,42.195834 C29.0180655,42.195834 25.3211273,38.7323825 24.8972,34.1314321 M43.7298036,46.5150324 L40.2302109,46.5150324 L40.2302109,41.8496388 C42.3878545,40.0527204 43.8569818,37.4030525 44.1391127,34.3412475 L44.7852364,27.7815212 C44.8334764,27.340909 44.8656364,26.8958008 44.8656364,26.4446978 C44.8656364,19.9913779 39.7668145,14.74 33.5,14.74 C27.2331855,14.74 22.1358255,19.9913779 22.1358255,26.4446978 C22.1358255,26.8958008 22.1665236,27.340909 22.2162255,27.8249829 L22.8608873,34.3337541 C23.1430182,37.4000552 24.6121455,40.0512217 26.7712509,41.8496388 L26.7712509,46.5150324 L23.2701964,46.5150324 C15.6117309,46.5150324 9.38,52.9338827 9.38,60.8199416 C9.38,61.3999311 9.83901091,61.8690182 10.4032727,61.8690182 C10.9689964,61.8690182 11.4280073,61.3999311 11.4280073,60.8199416 C11.4280073,54.0893656 16.7387927,48.6146843 23.2701964,48.6146843 L24.2963927,48.6146843 C24.9498255,52.1141042 28.8017164,54.8132285 33.4546836,54.8132285 C38.1061891,54.8132285 41.95808,52.1141042 42.6115127,48.6146843 L43.7298036,48.6146843 C50.2612073,48.6146843 55.5734545,54.0893656 55.5734545,60.8199416 C55.5734545,61.3999311 56.0310036,61.8690182 56.5967273,61.8690182 C57.1624509,61.8690182 57.62,61.3999311 57.62,60.8199416 C57.62,52.9338827 51.3897309,46.5150324 43.7298036,46.5150324" id="Icon" fill="#454545" mask="url(#mask-2)"></path>
                </g>
            </g>
        </g>
    </g>
</svg>