<?xml version="1.0" encoding="UTF-8"?>
<svg width="123px" height="21px" viewBox="0 0 123 21" version="1.1" xmlns="http://www.w3.org/2000/svg" xmlns:xlink="http://www.w3.org/1999/xlink">
    <!-- Generator: Sketch 49.3 (51167) - http://www.bohemiancoding.com/sketch -->
    <title>The Verge</title>
    <desc>Created with Sketch.</desc>
    <defs></defs>
    <g id="Page-1" stroke="none" stroke-width="1" fill="none" fill-rule="evenodd">
        <g id="Employers" transform="translate(-367.000000, -2568.000000)" fill="#D4E7F8">
            <g id="Call-to-Action-#5" transform="translate(0.000000, 2071.000000)">
                <g id="Logos" transform="translate(150.000000, 487.000000)">
                    <g id="The-Verge" transform="translate(217.000000, 10.000000)">
                        <path d="M100.6988,20.541 C97.1328,19.915 94.1718,17.543 92.8328,14.23 C92.1428,12.525 91.9088,9.601 92.3208,7.846 C92.9098,5.344 94.4948,3.062 96.5598,1.734 C98.3918,0.56 99.8398,0.23 103.6718,0.109 L107.1048,0 L107.1048,3.594 L107.1048,7.187 L105.7858,6.651 C104.9188,6.297 103.9218,6.083 102.8818,6.026 C101.4008,5.946 101.2318,5.982 100.3028,6.578 C98.9768,7.434 98.3638,8.612 98.3508,10.338 C98.3438,11.456 98.4318,11.77 98.9848,12.554 C99.8398,13.771 101.0058,14.413 102.3568,14.413 C103.7568,14.413 103.9868,14.239 103.9028,13.235 L103.8328,12.412 L102.1958,12.424 L100.5578,12.437 L100.5578,10.101 L100.5578,7.765 L104.9948,7.826 L109.4328,7.886 L109.4328,12.179 C109.4328,14.784 109.5258,16.732 109.6668,17.144 C109.9608,17.995 109.6858,18.339 107.9688,19.254 C105.9028,20.352 102.7838,20.903 100.6988,20.541 Z M3.526,19.75 C3.622,19.549 3.735,16.305 3.772,12.546 L3.837,5.712 L1.92,5.784 L0,5.861 L0.056,3.01 L0.117,0.157 L5.026,0.101 L9.935,0.044 L9.935,10.08 L9.935,20.117 L6.64,20.117 C3.574,20.121 3.36,20.093 3.526,19.75 Z M11.2062,10.085 L11.2062,0.053 L15.5352,0.053 L19.8632,0.053 L19.8632,2.973 L19.8632,5.894 L18.7022,5.796 L17.5392,5.699 L17.5392,6.781 L17.5392,7.862 L19.3342,7.862 L21.1292,7.862 L21.1292,3.952 L21.1292,0.044 L24.2962,0.044 L27.4712,0.044 L27.4712,10.076 L27.4712,20.109 L24.0942,20.109 L20.7222,20.109 L20.9282,19.568 C21.0402,19.27 21.1342,17.607 21.1342,15.873 L21.1342,12.718 L19.3272,12.718 L17.5192,12.718 L17.5842,16.047 C17.6202,17.878 17.7292,19.54 17.8262,19.742 C17.9912,20.085 17.7692,20.112 14.6032,20.112 L11.2022,20.112 L11.2022,10.085 L11.2062,10.085 Z M28.3424,19.7696 C28.7814,19.2386 28.8834,2.1746 28.4554,0.9236 L28.1534,0.0526 L34.2524,0.0526 L40.3514,0.0526 L40.3514,2.9776 L40.3514,5.9006 L39.2424,5.6106 C38.6174,5.4466 37.3984,5.3436 36.4434,5.3766 L34.7524,5.4326 L34.6874,6.6756 L34.6234,7.9186 L36.4304,7.8266 L38.2374,7.7286 L38.2374,10.2016 L38.2374,12.6736 L37.3014,12.4776 C36.7894,12.3686 36.0034,12.3066 35.5594,12.3436 L34.7524,12.4096 L34.6874,13.5406 L34.6234,14.6746 L37.0114,14.5706 C38.3264,14.5136 39.6134,14.3966 39.8754,14.3126 L40.3514,14.1596 L40.3514,17.1396 L40.3514,20.1216 L34.2084,20.1216 C28.5084,20.1216 28.0764,20.0926 28.3424,19.7696 Z M52.3282,19.4317 C49.4032,12.4367 44.3772,1.1047 43.9942,0.6487 L43.4902,0.0477 L50.5852,0.0477 C54.4862,0.0477 57.6812,0.1207 57.6812,0.2047 C57.6812,0.2937 57.2652,1.4557 56.7612,2.7907 L55.8422,5.2197 L54.2282,5.2807 C53.3402,5.3127 52.6142,5.3767 52.6142,5.4207 C52.6142,5.6217 54.5952,10.9407 54.7242,11.0887 C54.8052,11.1817 55.8012,8.7337 56.9432,5.6517 L59.0162,0.0477 L67.2252,0.0477 L75.4342,0.0477 L75.4342,3.1347 C75.4342,5.9977 75.4062,6.2077 75.0632,6.0507 C74.8622,5.9577 73.5782,5.8447 72.2112,5.7997 L69.7302,5.7197 L69.7302,6.8217 L69.7302,7.9217 L71.5252,7.8297 L73.3212,7.7377 L73.3212,10.2097 L73.3212,12.6827 L72.3852,12.4847 C71.8722,12.3757 71.0862,12.3157 70.6422,12.3517 L69.8352,12.4157 L69.7702,13.6297 L69.7062,14.8447 L71.5902,14.8447 C72.7272,14.8447 73.8332,14.7187 74.3732,14.5267 C74.8652,14.3527 75.3062,14.2067 75.3492,14.2067 C75.3932,14.2067 75.4302,15.5377 75.4302,17.1637 L75.4302,20.1207 L69.2792,20.1207 C64.2402,20.1207 63.1672,20.0737 63.3572,19.8467 C63.6072,19.5437 63.8172,4.9127 63.5672,4.9127 C63.4902,4.9127 61.9692,8.3337 60.1902,12.5167 L56.9552,20.1207 L54.7812,20.1207 L52.6142,20.1207 L52.3282,19.4317 Z M76.2373,0.0479 L80.1093,0.0569 C85.7893,0.0599 87.6693,0.4799 89.3193,2.1289 C91.3483,4.1549 91.6223,8.0639 89.9003,10.3989 L89.3843,11.0929 L90.2873,11.7869 C91.6513,12.8269 92.5063,14.6149 92.9863,17.4179 C93.2043,18.6929 93.4303,19.8219 93.4943,19.9279 C93.5623,20.0359 92.1153,20.1169 90.0013,20.1169 L86.3903,20.1169 L86.6363,19.6689 C87.0113,18.9599 86.7533,17.2809 86.1203,16.3199 C85.5553,15.4739 84.3943,14.5789 83.5063,14.3159 C83.0303,14.1799 83.0303,14.1829 83.0303,16.7399 C83.0303,18.1489 83.1273,19.4839 83.2483,19.7099 C83.4623,20.1059 83.3573,20.1169 79.8433,20.1169 C76.4633,20.1169 76.2333,20.0889 76.4033,19.7449 C76.6363,19.2749 76.6403,1.1569 76.4103,0.5249 L76.2373,0.0479 Z M83.4903,5.3369 C83.0423,5.3079 83.0303,5.7799 83.0303,7.2289 L83.0303,9.1289 L83.6763,9.1289 C84.1113,9.1289 84.5273,8.9309 84.9423,8.5159 C85.9183,7.5389 85.6643,6.1629 84.4063,5.6399 C83.9863,5.4649 83.6913,5.3489 83.4903,5.3369 Z M110.4127,19.75 C110.6417,19.277 110.6507,1.161 110.4207,0.524 L110.2467,0.044 L116.3347,0.101 L122.4217,0.157 L122.4817,3.078 L122.5427,5.998 L122.0627,5.845 C120.8927,5.47 119.9937,5.344 118.4647,5.337 L116.8267,5.332 L116.8267,6.628 L116.8267,7.922 L118.6217,7.83 L120.4167,7.737 L120.4167,10.258 C120.4167,12.569 120.3847,12.768 120.0457,12.634 C119.8437,12.554 119.0447,12.437 118.2707,12.371 L116.8677,12.255 L116.7907,13.368 C116.7377,14.146 116.7977,14.514 116.9917,14.586 C117.3507,14.724 121.4337,14.502 122.0507,14.313 L122.5267,14.167 L122.5267,17.148 L122.5267,20.13 L116.3787,20.13 C110.5947,20.121 110.2437,20.097 110.4127,19.75 Z" id="Combined-Shape"></path>
                    </g>
                </g>
            </g>
        </g>
    </g>
</svg>