<?xml version="1.0" encoding="UTF-8"?>
<svg width="88px" height="34px" viewBox="0 0 88 34" version="1.1" xmlns="http://www.w3.org/2000/svg" xmlns:xlink="http://www.w3.org/1999/xlink">
    <!-- Generator: Sketch 49.3 (51167) - http://www.bohemiancoding.com/sketch -->
    <title>Vine</title>
    <desc>Created with Sketch.</desc>
    <defs></defs>
    <g id="Page-1" stroke="none" stroke-width="1" fill="none" fill-rule="evenodd">
        <g id="Employers" transform="translate(-961.000000, -2562.000000)" fill="#D4E7F8">
            <g id="Call-to-Action-#5" transform="translate(0.000000, 2071.000000)">
                <g id="Logos" transform="translate(150.000000, 487.000000)">
                    <path d="M890.357667,22.4087899 C888.331559,23.1975766 887.215654,25.3881092 887.070869,27.4723483 C889.039152,27.4267306 891.16811,27.2447029 892.815923,26.0493435 C893.753495,25.3788085 894.415621,23.9832629 893.704939,22.9247565 C892.930692,21.926483 891.431195,22.0115178 890.357667,22.4087899 L890.357667,22.4087899 Z M827.836561,6.03471358 C830.077198,3.84418096 833.636351,3.51954278 836.475992,4.59665062 C838.419996,5.34602005 839.798986,7.15743906 840.28587,9.15664332 C841.011561,12.1058461 840.642536,15.279151 839.490435,18.0702421 C837.767139,18.4555562 835.499134,18.0977013 834.585841,16.4288927 C835.075815,14.4327887 835.586976,12.2209974 834.719149,10.2519096 C834.322756,9.32671298 833.176835,8.84130583 832.251623,9.26603708 C831.244749,9.69962613 830.854535,10.8498108 830.715489,11.8600423 C830.428126,14.3384532 830.987402,17.0538102 832.726147,18.9197046 C834.177529,20.5003781 836.37888,21.2466473 838.49592,21.1496544 C841.368227,21.083221 844.1805,19.8147848 846.106848,17.6698698 C847.594426,17.6574689 849.085094,17.6605691 850.573114,17.6698698 C850.578852,21.4047589 850.566934,25.1365478 850.578852,28.870994 C850.615049,30.1270293 850.669784,31.5199175 851.474048,32.5540651 C852.178551,33.4673037 853.590647,33.3672106 854.425368,32.6935753 C855.607485,31.7776794 856.206489,30.3396164 856.705291,28.9741873 C857.899768,25.3274333 858.30499,21.4804931 858.525699,17.6667696 C860.052563,17.6605691 861.579869,17.6605691 863.106733,17.6698698 C863.161028,18.9440635 863.194576,20.2213575 863.24269,21.4986515 C864.349325,19.7935261 865.934015,18.3311042 867.902739,17.7181448 C869.874111,17.0932273 872.250705,17.2088216 873.88351,18.5981667 C875.356521,19.8573022 875.924626,21.8538491 876.018648,23.7286013 C876.112229,26.1556371 875.982452,28.5857731 876.084861,31.0101515 C876.163875,31.823297 876.387232,32.8361858 877.249321,33.1457658 C878.325498,33.4885624 879.317364,32.6634588 879.843534,31.7958378 C881.449412,29.2230914 881.549173,26.0586442 882.910064,23.3796042 C884.055985,20.9406105 886.021177,18.7620359 888.622012,17.8851142 C890.980507,17.1087285 893.701849,17.1299872 895.924388,18.3160459 C897.777902,19.2961609 899.005926,21.3259245 898.990476,23.4283221 C899.111425,25.4913025 898.071444,27.5361244 896.378165,28.6920666 C893.837805,30.4941849 890.611482,30.8338813 887.58468,30.8281238 C888.141308,31.8108961 889.039152,32.5965825 890.127688,32.9212207 C892.861389,33.7587251 895.91247,33.1457658 898.255957,31.5407334 C898.249777,33.1612669 898.270965,34.7813575 898.249777,36.398348 C896.290323,37.7575766 893.750405,38.0184386 891.418835,37.9821216 C887.980631,37.9032873 884.397642,36.2039194 882.797944,33.0275142 C881.799898,35.703454 879.293527,38.0516553 876.317929,37.9878792 C874.367304,38.0427975 872.438308,36.9382305 871.555472,35.1848301 C870.306701,32.8849037 870.714571,30.1939057 870.645268,27.6880356 C870.596712,26.204355 870.823601,24.6236815 870.185752,23.2312362 C869.611026,22.0903522 868.065622,22.1417274 867.068018,22.6302348 C865.386657,23.4615388 864.594312,25.3424915 864.149804,27.0657755 C863.312434,30.5247443 863.714566,34.1108225 863.608626,37.6300243 C861.809406,37.6300243 860.010187,37.6331245 858.214057,37.6269241 C858.199049,36.07681 858.220237,34.5231528 858.202139,32.9730388 C857.434072,34.4987939 856.421018,35.952358 854.981554,36.908114 C853.073746,38.2367832 850.415528,38.3550348 848.383681,37.2509107 C846.690402,36.3009122 845.822574,34.4049013 845.453549,32.5722235 C844.860725,29.4383358 845.205472,26.2256137 845.118072,23.0580663 C842.635537,24.7569913 839.575187,25.3185755 836.620777,25.4031674 C834.701051,29.3351425 832.049012,32.899962 828.910089,35.9341995 C827.927493,36.8168788 826.890161,37.8727279 825.490425,37.9515623 C824.235474,37.9878792 823.198142,37.1508176 822.281758,36.3921475 C819.412542,33.8738765 817.380254,30.5486604 815.783646,27.1113931 C813.207531,21.5017518 811.861648,15.4124608 811,9.32361275 L811,9.0928672 C812.920168,9.09906765 814.840336,9.0840094 816.757414,9.09906765 C817.295502,13.3919978 818.097117,17.6760702 819.563507,21.7564134 C820.936317,25.6427708 822.992441,29.2837673 825.629472,32.4482144 C828.006066,30.0543954 829.916964,27.2265445 831.43809,24.2202089 C827.706784,22.2785804 825.529711,18.1433189 825.305912,14.0169153 C825.082114,11.1802065 825.732322,8.07377792 827.836561,6.03471358 Z M847.403733,7.80361518 C848.50154,7.60652925 849.720294,7.84923282 850.551926,8.62871875 C852.030234,9.98174689 852.015226,12.600111 850.548836,13.9562394 C849.066996,15.3548851 846.28827,15.13034 845.220922,13.3251215 C843.987159,11.3622342 844.903101,8.12825336 847.403733,7.80361518 Z" id="Vine"></path>
                </g>
            </g>
        </g>
    </g>
</svg>