<?xml version="1.0" encoding="UTF-8"?>
<svg width="20px" height="20px" viewBox="0 0 20 20" version="1.1" xmlns="http://www.w3.org/2000/svg" xmlns:xlink="http://www.w3.org/1999/xlink">
    <!-- Generator: Sketch 49.3 (51167) - http://www.bohemiancoding.com/sketch -->
    <title>Icon</title>
    <desc>Created with Sketch.</desc>
    <defs></defs>
    <g id="Page-1" stroke="none" stroke-width="1" fill="none" fill-rule="evenodd">
        <g id="About-Us" transform="translate(-644.000000, -2113.000000)" fill="#FFFFFF">
            <g id="Team-#3" transform="translate(0.000000, 965.000000)">
                <g id="Button" transform="translate(614.000000, 1128.000000)">
                    <path d="M40.6342832,20.4760623 L42.5394184,26.6560376 C42.6285609,26.9440364 42.8845599,27.1697498 43.1731302,27.1697498 L49.3319626,27.1697498 C49.9782458,27.1697498 50.2468161,28.0074607 49.7228182,28.4051734 L44.743981,32.1731583 C44.5096962,32.3508719 44.4114109,32.6594421 44.5005534,32.9485838 L46.4039744,39.0822735 C46.6039736,39.7274138 45.8999764,40.2616974 45.3771213,39.8628418 L40.3919984,36.0594285 C40.1582851,35.8811435 39.8417149,35.8805721 39.6080016,36.0582856 L34.6228787,39.8565562 C34.1000236,40.2548403 33.3965979,39.718271 33.5965971,39.0737021 L35.4994466,32.9417267 C35.5891605,32.6531564 35.4908752,32.3365863 35.2565904,32.1588727 L30.2771818,28.4051734 C29.7531839,28.0074607 30.0217542,27.1697498 30.6680374,27.1697498 L36.8268698,27.1697498 C37.1160115,27.1697498 37.3720105,26.9440364 37.461153,26.6560376 L39.3657168,20.4909194 C39.565716,19.8463505 40.4348554,19.8314934 40.6342832,20.4760623" id="Icon"></path>
                </g>
            </g>
        </g>
    </g>
</svg>